<svg xmlns="http://www.w3.org/2000/svg" xmlns:xlink="http://www.w3.org/1999/xlink" width="500" zoomAndPan="magnify" viewBox="0 0 375 374.999991" height="500" preserveAspectRatio="xMidYMid meet" version="1.0"><defs><clipPath id="a7187e42c2"><path d="M 31 37.5 L 314 37.5 L 314 231 L 31 231 Z M 31 37.5 " clip-rule="nonzero"/></clipPath><clipPath id="b94e2555ca"><path d="M 14 122 L 368.78125 122 L 368.78125 261 L 14 261 Z M 14 122 " clip-rule="nonzero"/></clipPath><clipPath id="8db29d22e6"><path d="M 9 192 L 320 192 L 320 326.261719 L 9 326.261719 Z M 9 192 " clip-rule="nonzero"/></clipPath><clipPath id="3d8f3b54b1"><path d="M 247 249 L 359 249 L 359 356 L 247 356 Z M 247 249 " clip-rule="nonzero"/></clipPath><clipPath id="2ca0bf0867"><path d="M 247.144531 298.980469 L 284.8125 249.949219 L 358.859375 306.832031 L 321.1875 355.867188 Z M 247.144531 298.980469 " clip-rule="nonzero"/></clipPath></defs><g clip-path="url(#a7187e42c2)"><path fill="#af88d1" d="M 293.90625 153.003906 C 282.148438 106.304688 244.839844 70.480469 196.960938 61.894531 C 134.445312 50.640625 72.605469 89.683594 56.953125 151.816406 C 50.355469 177.957031 52.261719 203.886719 62.621094 229.519531 C 62.664062 229.5625 62.664062 229.605469 62.664062 229.644531 C 62.664062 229.859375 62.496094 230.027344 62.328125 230.027344 C 62.285156 230.027344 62.285156 230.027344 62.242188 230.027344 C 52.726562 228.292969 36.058594 221.398438 33.902344 210.570312 C 16.8125 124.535156 79.203125 43.238281 166.507812 38.078125 C 233.421875 34.144531 293.1875 76.0625 313.027344 139.296875 C 313.066406 139.46875 313.109375 139.636719 313.109375 139.804688 C 313.109375 140.355469 312.855469 140.820312 312.433594 141.117188 L 295.007812 153.425781 C 294.878906 153.511719 294.753906 153.550781 294.625 153.550781 C 294.289062 153.550781 293.992188 153.339844 293.90625 153.003906 Z M 293.90625 153.003906 " fill-opacity="1" fill-rule="evenodd"/></g><path fill="#552c89" d="M 172.089844 132.53125 C 168.664062 129.273438 166.589844 120.898438 169.550781 117.429688 C 169.804688 117.132812 169.933594 116.753906 169.847656 116.332031 C 168.496094 108.335938 169.46875 98.820312 178.011719 96.027344 C 181.054688 95.011719 184.949219 95.351562 188.671875 95.140625 C 192.984375 94.925781 196.539062 96.492188 199.328125 99.664062 C 202.96875 103.808594 202.839844 111.59375 202.417969 116.878906 C 202.417969 117.304688 202.542969 117.683594 202.839844 117.9375 C 203.390625 118.445312 203.726562 118.910156 203.855469 119.417969 C 205.082031 123.859375 204.320312 127.75 201.65625 131.050781 C 201.402344 131.386719 201.234375 131.769531 201.191406 132.191406 C 200.9375 135.574219 199.625 138.496094 197.214844 140.90625 C 196.960938 141.203125 196.832031 141.625 196.960938 142.003906 C 197.550781 143.738281 197.46875 145.175781 196.664062 146.277344 C 194.59375 149.238281 191.503906 152.15625 187.445312 155.074219 C 187.316406 155.203125 187.148438 155.246094 186.9375 155.246094 C 186.722656 155.246094 186.511719 155.160156 186.386719 155.03125 L 175.640625 145.050781 C 175.304688 144.753906 175.136719 144.332031 175.136719 143.867188 L 175.21875 142.511719 C 175.21875 141.960938 175.09375 141.496094 174.753906 141.074219 C 173.105469 138.664062 172.300781 136 172.300781 133.039062 C 172.34375 132.828125 172.257812 132.65625 172.132812 132.53125 Z M 172.089844 132.53125 " fill-opacity="1" fill-rule="evenodd"/><path fill="#552c89" d="M 181.734375 203.253906 C 181.691406 190.605469 182.789062 178.085938 185.03125 165.648438 C 185.074219 165.269531 184.992188 164.929688 184.738281 164.675781 L 181.777344 161.671875 C 181.351562 161.25 181.394531 160.828125 181.859375 160.445312 L 186.597656 156.851562 C 187.0625 156.511719 187.484375 156.511719 187.910156 156.808594 L 192.644531 160.152344 C 192.898438 160.363281 193.027344 160.660156 193.027344 160.953125 C 193.027344 161.164062 192.941406 161.417969 192.816406 161.589844 L 190.109375 164.632812 C 189.9375 164.886719 189.855469 165.140625 189.898438 165.480469 C 192.097656 176.054688 193.195312 186.796875 193.195312 197.625 C 193.152344 197.625 193.152344 197.625 193.152344 197.625 C 193.152344 197.710938 193.238281 197.796875 193.324219 197.796875 C 193.40625 197.796875 193.492188 197.753906 193.492188 197.667969 C 195.734375 186.460938 197.550781 175.167969 198.949219 163.746094 C 199.710938 157.824219 199.710938 151.988281 198.949219 146.191406 C 198.949219 146.191406 198.949219 146.191406 198.949219 146.148438 C 198.949219 145.894531 199.160156 145.726562 199.414062 145.726562 C 199.5 145.726562 199.582031 145.769531 199.667969 145.8125 C 202.925781 148.308594 205.292969 151.226562 209.140625 152.707031 C 212.019531 153.804688 214.9375 154.863281 217.898438 155.792969 C 217.941406 155.792969 218.023438 155.792969 218.066406 155.792969 C 218.363281 155.792969 218.574219 155.582031 218.574219 155.285156 C 218.320312 144.035156 227.371094 144.246094 235.199219 141.792969 C 235.324219 141.75 235.410156 141.710938 235.492188 141.625 C 235.960938 141.285156 236.042969 140.652344 235.707031 140.1875 C 235.621094 140.101562 235.535156 140.015625 235.453125 139.933594 C 229.785156 136.167969 231.050781 130.839844 233.464844 125.042969 C 236.761719 117.132812 240.1875 106.007812 248.308594 103.851562 C 262.648438 100.003906 267.300781 117.980469 271.234375 127.414062 C 273.476562 132.742188 272.378906 137.097656 267.976562 140.441406 C 267.808594 140.523438 267.726562 140.734375 267.726562 140.90625 C 267.726562 141.160156 267.894531 141.414062 268.105469 141.496094 C 278.847656 145.9375 286.25 142.808594 285.703125 158.882812 C 285.703125 159.304688 285.53125 159.601562 285.195312 159.8125 C 234.734375 192.847656 176.53125 220.042969 116.765625 230.113281 C 100.859375 232.820312 84.871094 233.242188 68.839844 231.464844 C 68.417969 231.421875 68.078125 231.167969 67.953125 230.789062 C 60.804688 212.601562 64.441406 195.722656 69.898438 177.449219 C 72.519531 168.78125 80.851562 169.203125 88.171875 166.875 C 88.679688 166.707031 88.972656 166.285156 88.972656 165.777344 C 88.972656 165.351562 88.804688 165.015625 88.464844 164.804688 C 81.742188 160.363281 83.519531 154.101562 86.394531 147.335938 C 88.425781 142.640625 90.453125 137.988281 92.570312 133.335938 C 96.757812 124.027344 108.261719 119.375 116.636719 126.480469 C 121.246094 130.414062 124.125 138.621094 126.621094 144.5 C 130.214844 152.960938 133.472656 158.753906 125.5625 165.269531 C 125.179688 165.566406 125.179688 165.859375 125.5625 166.15625 C 127.042969 167.339844 128.605469 168.058594 130.339844 168.3125 C 134.191406 168.863281 137.742188 169.878906 140.957031 171.359375 C 141.296875 171.527344 141.507812 171.445312 141.59375 171.0625 C 143.03125 164.886719 142.945312 160.191406 149.796875 157.613281 C 153.945312 156.003906 158.132812 154.484375 162.359375 153.003906 C 166.675781 151.523438 169.128906 148.644531 172.597656 145.855469 C 172.679688 145.8125 172.808594 145.769531 172.894531 145.769531 C 173.1875 145.769531 173.402344 145.980469 173.402344 146.234375 C 173.402344 146.234375 173.402344 146.277344 173.359375 146.277344 C 172.679688 153.382812 172.976562 160.53125 174.246094 167.765625 C 176.277344 179.648438 178.6875 191.492188 181.4375 203.292969 C 181.648438 204.226562 181.734375 204.183594 181.734375 203.253906 Z M 241.414062 155.539062 L 241.160156 156.597656 C 241.078125 157.019531 241.246094 157.230469 241.667969 157.230469 C 243.742188 157.316406 245.265625 158.628906 246.238281 161.207031 C 247.972656 165.566406 249.707031 169.835938 251.441406 174.066406 C 251.523438 174.234375 251.695312 174.363281 251.90625 174.363281 C 252.074219 174.363281 252.242188 174.234375 252.328125 174.066406 C 254.316406 169.203125 256.304688 164.296875 258.292969 159.347656 C 258.882812 157.867188 260.070312 157.273438 261.929688 157.570312 C 262.4375 157.65625 262.648438 157.445312 262.648438 156.9375 L 262.5625 155.539062 C 262.5625 154.949219 262.816406 154.695312 263.367188 154.777344 L 272.632812 156.132812 C 273.054688 156.175781 273.179688 156.003906 273.011719 155.625 C 270.515625 149.957031 266.835938 145.175781 261.929688 141.371094 C 261.84375 141.285156 261.71875 141.242188 261.550781 141.242188 C 261.253906 141.242188 261 141.457031 260.957031 141.710938 C 259.433594 149.238281 257.445312 156.003906 252.414062 161.96875 C 252.242188 162.140625 252.074219 162.222656 251.820312 162.222656 C 251.609375 162.222656 251.398438 162.140625 251.269531 161.96875 C 246.363281 155.921875 245.136719 148.898438 242.726562 141.625 C 242.558594 141.117188 242.261719 141.03125 241.796875 141.371094 C 236.933594 145.175781 233.253906 149.914062 230.796875 155.582031 C 230.757812 155.625 230.757812 155.667969 230.757812 155.710938 C 230.757812 155.921875 230.925781 156.089844 231.09375 156.089844 C 231.136719 156.089844 231.136719 156.089844 231.136719 156.089844 L 240.738281 154.820312 C 241.289062 154.738281 241.542969 154.949219 241.414062 155.539062 Z M 119.765625 181.636719 L 130.847656 183.117188 C 131.230469 183.160156 131.3125 182.992188 131.1875 182.652344 C 128.3125 176.140625 124.082031 170.683594 118.457031 166.285156 C 118.328125 166.199219 118.160156 166.113281 117.949219 166.113281 C 117.566406 166.113281 117.230469 166.453125 117.1875 166.832031 C 116.171875 175.378906 113.085938 183.078125 107.882812 189.84375 C 107.5 190.308594 107.078125 190.351562 106.65625 189.886719 C 101.324219 184.386719 98.746094 174.449219 97.09375 167.171875 C 97.011719 166.707031 96.546875 166.367188 96.082031 166.367188 C 95.828125 166.367188 95.574219 166.453125 95.402344 166.578125 C 89.945312 170.9375 85.84375 176.308594 83.050781 182.695312 C 82.882812 183.035156 83.011719 183.203125 83.390625 183.117188 L 94.515625 181.636719 C 95.234375 181.554688 95.488281 181.847656 95.277344 182.570312 L 94.855469 184.132812 C 94.726562 184.554688 94.894531 184.726562 95.320312 184.683594 C 97.773438 184.472656 99.507812 185.699219 100.523438 188.320312 C 102.46875 193.4375 104.496094 198.558594 106.65625 203.675781 C 106.738281 203.84375 106.949219 203.972656 107.164062 203.972656 C 107.375 203.972656 107.542969 203.84375 107.628906 203.675781 C 109.699219 198.640625 111.730469 193.566406 113.761719 188.363281 C 114.734375 185.742188 116.46875 184.515625 118.835938 184.597656 C 119.300781 184.640625 119.472656 184.429688 119.386719 183.964844 L 119.003906 182.527344 C 118.835938 181.847656 119.089844 181.554688 119.765625 181.636719 Z M 119.765625 181.636719 " fill-opacity="1" fill-rule="evenodd"/><g clip-path="url(#b94e2555ca)"><path fill="#af88d1" d="M 325.164062 139.46875 L 319.539062 133.882812 C 319.414062 133.757812 319.371094 133.585938 319.371094 133.417969 C 319.371094 133.121094 319.582031 132.867188 319.878906 132.828125 L 370.550781 122.675781 C 370.59375 122.675781 370.636719 122.675781 370.675781 122.675781 C 370.929688 122.675781 371.183594 122.886719 371.183594 123.140625 C 371.183594 123.226562 371.144531 123.265625 371.144531 123.308594 L 354.433594 172.460938 C 353.84375 174.109375 353.125 174.195312 352.152344 172.753906 L 347.710938 166.074219 C 347.457031 165.691406 346.949219 165.605469 346.566406 165.859375 C 296.023438 200.546875 240.527344 227.617188 182.535156 245.464844 C 156.652344 253.417969 127.464844 259.421875 102.171875 260.4375 C 78.949219 261.371094 49.890625 259.550781 30.855469 244.324219 C 7.128906 225.457031 12.710938 193.226562 25.867188 169.035156 C 25.867188 169.035156 25.910156 168.992188 25.910156 168.992188 C 26.035156 168.992188 26.121094 169.035156 26.203125 169.035156 C 26.289062 169.074219 26.332031 169.117188 26.289062 169.203125 C 6.492188 226.558594 52.765625 242.84375 98.40625 239.671875 C 120.824219 238.0625 144.722656 232.902344 170.144531 224.148438 C 226.398438 204.773438 278.046875 176.902344 325.082031 140.523438 C 325.503906 140.1875 325.546875 139.847656 325.164062 139.46875 Z M 325.164062 139.46875 " fill-opacity="1" fill-rule="evenodd"/></g><g clip-path="url(#8db29d22e6)"><path fill="#552c89" d="M 190.785156 260.945312 C 157.707031 271.011719 123.785156 277.90625 89.101562 277.570312 C 56.066406 277.273438 14.445312 265.726562 9.199219 226.9375 C 8.988281 225.417969 9.160156 225.375 9.75 226.769531 C 19.988281 252.527344 42.910156 263.019531 68.839844 266.445312 C 88.085938 268.984375 108.855469 268.433594 131.0625 264.796875 C 196.832031 254.09375 260.957031 227.109375 317.59375 192.972656 C 318.863281 192.210938 319.371094 192.550781 319.199219 193.988281 C 314.335938 237.132812 295.429688 271.394531 262.480469 296.773438 C 205.460938 340.71875 124.96875 334.542969 73.832031 284.546875 C 73.324219 284 73.410156 283.789062 74.128906 283.789062 C 113.253906 285.097656 154.535156 275.117188 190.871094 261.199219 C 190.910156 261.15625 190.910156 261.117188 190.910156 261.074219 C 190.910156 260.988281 190.871094 260.945312 190.785156 260.945312 Z M 190.785156 260.945312 " fill-opacity="1" fill-rule="evenodd"/></g><g clip-path="url(#3d8f3b54b1)"><g clip-path="url(#2ca0bf0867)"><path fill="#552c89" d="M 247.144531 298.980469 L 284.8125 249.949219 L 358.933594 306.894531 L 321.265625 355.925781 Z M 247.144531 298.980469 " fill-opacity="1" fill-rule="nonzero"/></g></g></svg>