<svg xmlns="http://www.w3.org/2000/svg" xmlns:xlink="http://www.w3.org/1999/xlink" width="500" zoomAndPan="magnify" viewBox="0 0 375 374.999991" height="500" preserveAspectRatio="xMidYMid meet" version="1.0"><defs><g/><clipPath id="d057936824"><path d="M 149 80.789062 L 225 80.789062 L 225 156 L 149 156 Z M 149 80.789062 " clip-rule="nonzero"/></clipPath><clipPath id="870e914321"><path d="M 220 157 L 242.859375 157 L 242.859375 180.539062 L 220 180.539062 Z M 220 157 " clip-rule="nonzero"/></clipPath><clipPath id="976e779524"><path d="M 216 128 L 242.859375 128 L 242.859375 152 L 216 152 Z M 216 128 " clip-rule="nonzero"/></clipPath><clipPath id="251a629a10"><path d="M 131.859375 128 L 162 128 L 162 152 L 131.859375 152 Z M 131.859375 128 " clip-rule="nonzero"/></clipPath></defs><g clip-path="url(#d057936824)"><path fill="#552c89" d="M 212.246094 146.25 C 212.875 145.703125 213.414062 145.195312 213.914062 144.6875 C 214.816406 143.773438 215.652344 142.839844 216.390625 141.925781 C 219.207031 138.46875 221.3125 134.671875 222.714844 130.699219 C 223.140625 129.496094 223.503906 128.273438 223.800781 127.042969 C 223.824219 126.929688 223.855469 126.824219 223.882812 126.71875 C 224.144531 125.578125 224.359375 124.421875 224.507812 123.269531 C 225.3125 117.378906 224.691406 111.359375 222.679688 105.730469 C 222.214844 104.433594 221.675781 103.15625 221.066406 101.910156 C 219.261719 98.203125 216.804688 94.730469 213.714844 91.667969 L 213.707031 91.667969 C 206.652344 84.644531 197.28125 80.789062 187.324219 80.789062 L 187.175781 80.789062 C 177.164062 80.828125 167.761719 84.757812 160.710938 91.875 C 157.746094 94.855469 155.390625 98.222656 153.640625 101.808594 C 153.027344 103.054688 152.488281 104.328125 152.03125 105.625 C 150.011719 111.261719 149.390625 117.285156 150.148438 123.15625 C 150.300781 124.316406 150.507812 125.476562 150.769531 126.617188 C 150.789062 126.722656 150.8125 126.832031 150.84375 126.9375 C 151.128906 128.171875 151.484375 129.394531 151.902344 130.597656 C 153.710938 135.824219 156.707031 140.726562 160.886719 144.875 C 162.265625 146.230469 163.738281 147.484375 165.269531 148.59375 C 165.335938 148.644531 165.40625 148.695312 165.476562 148.742188 C 165.699219 148.90625 165.917969 149.0625 166.144531 149.207031 C 167.160156 149.902344 168.195312 150.542969 169.253906 151.125 C 180.492188 157.332031 194.027344 157.355469 205.269531 151.175781 C 206.136719 150.707031 206.988281 150.191406 207.828125 149.640625 C 207.835938 149.640625 207.835938 149.632812 207.839844 149.632812 L 208.054688 149.503906 C 208.171875 149.425781 208.300781 149.351562 208.410156 149.269531 C 208.664062 149.09375 208.871094 148.949219 209.070312 148.8125 C 209.152344 148.75 209.234375 148.6875 209.3125 148.632812 C 209.953125 148.160156 210.582031 147.683594 211.1875 147.183594 C 211.488281 146.933594 211.785156 146.6875 212.058594 146.414062 C 212.121094 146.355469 212.183594 146.304688 212.246094 146.25 Z M 211.476562 142.851562 C 211.433594 142.894531 211.371094 142.945312 211.308594 143.003906 C 210.914062 143.390625 210.511719 143.765625 210.105469 144.117188 C 209.871094 144.332031 209.632812 144.53125 209.394531 144.726562 C 208.332031 145.617188 207.207031 146.445312 206.054688 147.191406 L 206.046875 147.191406 C 205.746094 147.382812 205.445312 147.570312 205.144531 147.761719 L 205.140625 147.761719 C 204.28125 148.300781 203.347656 148.8125 202.386719 149.269531 L 202.355469 149.289062 C 202.355469 149.289062 202.320312 149.308594 202.300781 149.320312 C 201.847656 149.539062 201.386719 149.757812 200.902344 149.941406 C 200.578125 150.085938 200.25 150.222656 199.917969 150.355469 C 199.585938 150.488281 199.253906 150.617188 198.914062 150.738281 C 196.882812 151.476562 194.734375 152.023438 192.515625 152.347656 C 192.300781 152.378906 192.082031 152.410156 191.871094 152.4375 C 191.65625 152.46875 191.4375 152.492188 191.222656 152.519531 C 190.316406 152.628906 189.449219 152.691406 188.617188 152.71875 C 188.460938 152.722656 188.296875 152.730469 188.140625 152.730469 L 188.128906 152.730469 C 188.046875 152.738281 187.953125 152.738281 187.859375 152.738281 L 187.558594 152.738281 C 187.488281 152.738281 187.417969 152.738281 187.34375 152.738281 C 187.085938 152.738281 186.824219 152.738281 186.5625 152.722656 C 186.410156 152.722656 186.261719 152.71875 186.109375 152.710938 C 185.664062 152.699219 185.230469 152.667969 184.800781 152.636719 C 184.085938 152.582031 183.433594 152.519531 182.800781 152.4375 C 182.574219 152.40625 182.34375 152.375 182.117188 152.34375 L 180.457031 152.042969 C 180.179688 151.992188 179.898438 151.933594 179.617188 151.871094 C 179.082031 151.753906 178.542969 151.613281 178 151.453125 C 177.714844 151.375 177.433594 151.289062 177.152344 151.195312 C 177.035156 151.164062 176.871094 151.113281 176.695312 151.042969 C 176.28125 150.933594 175.878906 150.789062 175.464844 150.632812 C 175.441406 150.617188 175.410156 150.613281 175.386719 150.597656 C 175.347656 150.585938 175.304688 150.566406 175.265625 150.554688 C 174.839844 150.410156 174.351562 150.21875 173.855469 149.996094 L 173.761719 149.960938 C 173.71875 149.941406 173.671875 149.921875 173.636719 149.902344 C 173.316406 149.773438 172.992188 149.632812 172.671875 149.472656 L 172.664062 149.472656 L 172.414062 149.351562 L 172.324219 149.316406 C 172.324219 149.316406 172.269531 149.289062 172.246094 149.277344 C 172.195312 149.25 172.144531 149.226562 172.101562 149.203125 C 171.976562 149.144531 171.855469 149.082031 171.742188 149.027344 C 171.6875 148.996094 171.636719 148.96875 171.578125 148.945312 C 171.460938 148.875 171.335938 148.8125 171.214844 148.746094 C 171.210938 148.746094 171.203125 148.746094 171.203125 148.738281 C 171.085938 148.675781 170.972656 148.613281 170.859375 148.550781 C 170.644531 148.4375 170.414062 148.3125 170.183594 148.179688 C 170.0625 148.109375 169.945312 148.042969 169.824219 147.96875 C 169.707031 147.898438 169.585938 147.828125 169.472656 147.753906 C 169.429688 147.730469 169.378906 147.699219 169.328125 147.667969 C 169.066406 147.515625 168.777344 147.332031 168.488281 147.144531 C 168.378906 147.0625 168.269531 146.988281 168.15625 146.90625 C 168.144531 146.902344 168.132812 146.890625 168.121094 146.882812 C 167.664062 146.589844 167.203125 146.269531 166.734375 145.921875 C 166.265625 145.574219 165.78125 145.195312 165.300781 144.796875 L 165.292969 144.796875 C 164.589844 144.210938 163.9375 143.617188 163.300781 142.984375 C 163.273438 142.964844 163.25 142.941406 163.222656 142.921875 C 163.210938 142.910156 163.199219 142.902344 163.191406 142.894531 L 163.117188 142.816406 L 163.066406 142.769531 L 162.980469 142.683594 C 162.804688 142.507812 162.628906 142.332031 162.464844 142.15625 C 159.113281 138.683594 156.644531 134.671875 155.050781 130.402344 C 154.617188 129.25 154.25 128.085938 153.953125 126.90625 C 153.929688 126.835938 153.917969 126.769531 153.898438 126.699219 C 153.597656 125.488281 153.359375 124.265625 153.1875 123.039062 C 152.8125 120.335938 152.761719 117.597656 153.03125 114.882812 C 153.144531 113.742188 153.316406 112.613281 153.539062 111.484375 C 153.683594 110.746094 153.855469 110.007812 154.054688 109.273438 C 154.1875 108.753906 154.34375 108.226562 154.503906 107.710938 C 154.699219 107.105469 154.914062 106.496094 155.144531 105.902344 C 155.214844 105.714844 155.289062 105.523438 155.363281 105.335938 C 155.570312 104.828125 155.789062 104.320312 156.015625 103.820312 C 156.242188 103.332031 156.480469 102.847656 156.730469 102.367188 C 156.925781 101.984375 157.132812 101.609375 157.34375 101.230469 C 157.425781 101.09375 157.5 100.957031 157.582031 100.816406 C 159.007812 98.386719 160.761719 96.085938 162.835938 93.992188 C 162.972656 93.855469 163.105469 93.722656 163.238281 93.597656 C 163.304688 93.527344 163.382812 93.457031 163.457031 93.390625 C 163.460938 93.390625 163.46875 93.382812 163.476562 93.378906 C 163.730469 93.113281 164.070312 92.800781 164.402344 92.507812 C 164.910156 92.054688 165.425781 91.621094 165.953125 91.207031 C 166.476562 90.789062 167.015625 90.394531 167.5625 90.011719 C 168 89.703125 168.445312 89.402344 168.902344 89.121094 C 169.574219 88.695312 170.265625 88.292969 170.960938 87.925781 C 171.375 87.6875 171.835938 87.460938 172.292969 87.242188 C 172.800781 86.988281 173.292969 86.757812 173.785156 86.5625 L 173.792969 86.5625 C 173.792969 86.5625 173.847656 86.539062 173.878906 86.527344 C 174 86.46875 174.117188 86.414062 174.242188 86.371094 C 174.351562 86.324219 174.464844 86.28125 174.578125 86.238281 C 174.613281 86.226562 174.65625 86.207031 174.695312 86.195312 C 175.117188 86.023438 175.484375 85.894531 175.84375 85.761719 L 176.113281 85.667969 C 176.589844 85.503906 177.039062 85.359375 177.464844 85.242188 C 177.929688 85.097656 178.449219 84.953125 178.964844 84.839844 C 179.207031 84.765625 179.585938 84.671875 179.980469 84.601562 C 180.0625 84.582031 180.140625 84.558594 180.230469 84.539062 C 180.316406 84.519531 180.410156 84.5 180.507812 84.476562 C 180.511719 84.484375 180.511719 84.476562 180.519531 84.476562 C 180.613281 84.457031 180.710938 84.4375 180.820312 84.421875 L 180.832031 84.421875 C 180.9375 84.402344 181.046875 84.382812 181.15625 84.363281 C 181.609375 84.277344 182.015625 84.199219 182.425781 84.15625 C 182.773438 84.105469 183.246094 84.039062 183.691406 84.019531 C 188.886719 83.441406 194.078125 84.070312 198.898438 85.785156 C 199.9375 86.164062 200.957031 86.582031 201.960938 87.058594 C 205.476562 88.707031 208.738281 90.96875 211.578125 93.792969 L 211.582031 93.792969 C 211.789062 93.992188 211.992188 94.199219 212.183594 94.40625 C 212.390625 94.625 212.605469 94.851562 212.8125 95.074219 C 213.105469 95.402344 213.402344 95.742188 213.683594 96.074219 C 213.964844 96.410156 214.242188 96.75 214.511719 97.09375 C 214.867188 97.550781 215.210938 98.023438 215.546875 98.492188 C 216.449219 99.757812 217.25 101.082031 217.957031 102.453125 C 218.546875 103.601562 219.074219 104.777344 219.53125 105.988281 C 220.992188 109.820312 221.757812 113.917969 221.777344 118.136719 C 221.78125 119.828125 221.667969 121.503906 221.429688 123.144531 C 221.261719 124.378906 221.015625 125.601562 220.710938 126.800781 C 220.699219 126.867188 220.679688 126.9375 220.660156 127.007812 C 220.351562 128.191406 219.984375 129.355469 219.550781 130.496094 L 219.542969 130.496094 C 218.96875 132.035156 218.277344 133.511719 217.480469 134.941406 C 217.21875 135.425781 216.9375 135.894531 216.648438 136.363281 C 216.484375 136.632812 216.316406 136.902344 216.140625 137.167969 C 215.984375 137.40625 215.820312 137.644531 215.65625 137.875 C 215.496094 138.113281 215.332031 138.34375 215.164062 138.578125 C 215.136719 138.613281 215.105469 138.644531 215.085938 138.683594 C 214.824219 139.035156 214.5625 139.378906 214.292969 139.71875 C 214.210938 139.816406 214.128906 139.917969 214.046875 140.019531 C 213.339844 140.890625 212.574219 141.742188 211.765625 142.558594 L 211.476562 142.847656 Z M 211.476562 142.851562 " fill-opacity="1" fill-rule="nonzero"/></g><g clip-path="url(#870e914321)"><path fill="#552c89" d="M 242.304688 175.082031 L 225.503906 158.410156 C 225.121094 158.035156 224.621094 157.828125 224.082031 157.828125 C 224.011719 157.820312 223.945312 157.820312 223.882812 157.828125 C 223.367188 157.84375 222.984375 158.078125 222.648438 158.414062 L 220.878906 160.195312 C 220.539062 160.535156 220.339844 160.972656 220.300781 161.449219 C 220.289062 161.507812 220.289062 161.570312 220.289062 161.632812 C 220.296875 162.171875 220.503906 162.671875 220.890625 163.054688 L 237.691406 179.726562 C 238.480469 180.511719 239.765625 180.503906 240.546875 179.714844 L 242.316406 177.933594 C 243.101562 177.144531 243.09375 175.859375 242.304688 175.078125 Z M 242.304688 175.082031 " fill-opacity="1" fill-rule="nonzero"/></g><path fill="#552c89" d="M 218.277344 155.300781 L 213.375 150.429688 L 213.324219 150.378906 C 213.324219 150.378906 213.308594 150.398438 213.300781 150.40625 C 213.132812 150.542969 212.960938 150.675781 212.800781 150.800781 C 212.492188 151.042969 212.183594 151.277344 211.882812 151.503906 L 215.230469 154.832031 L 218.046875 157.625 L 218.390625 157.972656 L 219.667969 156.671875 L 219.324219 156.335938 L 218.285156 155.300781 Z M 218.277344 155.300781 " fill-opacity="1" fill-rule="nonzero"/><g clip-path="url(#976e779524)"><path fill="#552c89" d="M 222.804688 151.664062 C 223.292969 151.660156 223.792969 151.628906 224.308594 151.582031 C 225.097656 151.527344 225.867188 151.445312 226.640625 151.328125 C 229.265625 150.9375 231.765625 150.21875 234.085938 149.1875 C 234.46875 149.027344 234.800781 148.871094 235.140625 148.710938 L 235.421875 148.585938 C 236.203125 148.191406 237.039062 147.734375 237.859375 147.246094 C 239.167969 146.457031 240.441406 145.546875 241.644531 144.542969 C 242.015625 144.242188 242.371094 143.925781 242.722656 143.597656 C 241.851562 139.648438 239.898438 136.070312 237.011719 133.1875 C 234.949219 131.125 232.460938 129.496094 229.765625 128.429688 C 228.914062 128.988281 228 129.445312 227.035156 129.800781 C 225.53125 134.960938 222.980469 139.914062 219.367188 144.335938 C 218.558594 145.339844 217.644531 146.367188 216.640625 147.382812 C 216.496094 147.535156 216.347656 147.679688 216.195312 147.824219 L 220 151.609375 C 220.464844 151.640625 220.871094 151.660156 221.28125 151.664062 Z M 222.804688 151.664062 " fill-opacity="1" fill-rule="nonzero"/></g><path fill="#552c89" d="M 214.800781 131.800781 C 215.195312 130.992188 215.550781 130.171875 215.871094 129.34375 C 215.292969 129.082031 214.75 128.773438 214.222656 128.429688 C 212.078125 129.269531 210.117188 130.441406 208.394531 131.875 C 209.539062 133.652344 210.449219 135.5625 211.105469 137.566406 C 211.113281 137.554688 211.121094 137.550781 211.125 137.542969 C 211.296875 137.34375 211.453125 137.136719 211.601562 136.933594 C 211.765625 136.734375 211.914062 136.527344 212.066406 136.320312 C 212.214844 136.113281 212.359375 135.90625 212.503906 135.699219 C 212.722656 135.386719 212.929688 135.074219 213.136719 134.753906 C 213.546875 134.113281 213.921875 133.460938 214.285156 132.804688 C 214.460938 132.472656 214.628906 132.140625 214.800781 131.800781 Z M 214.800781 131.800781 " fill-opacity="1" fill-rule="nonzero"/><path fill="#552c89" d="M 228.292969 123.933594 C 228.25 124.261719 228.207031 124.585938 228.148438 124.90625 C 228.476562 124.675781 228.789062 124.421875 229.085938 124.152344 C 231.234375 122.21875 232.589844 119.414062 232.589844 116.300781 C 232.589844 112.320312 230.382812 108.839844 227.121094 107.03125 C 228.164062 110.695312 228.6875 114.480469 228.6875 118.273438 C 228.6875 120.167969 228.558594 122.054688 228.292969 123.933594 Z M 228.292969 123.933594 " fill-opacity="1" fill-rule="nonzero"/><path fill="#552c89" d="M 217.03125 125.652344 C 217.207031 124.957031 217.351562 124.253906 217.46875 123.546875 C 218.398438 118.21875 217.90625 112.691406 216.007812 107.570312 C 213.230469 109.480469 211.40625 112.675781 211.40625 116.300781 C 211.40625 119.410156 212.753906 122.210938 214.898438 124.152344 C 215.546875 124.730469 216.257812 125.238281 217.03125 125.652344 Z M 217.03125 125.652344 " fill-opacity="1" fill-rule="nonzero"/><path fill="#552c89" d="M 187.308594 124.117188 C 190.035156 124.117188 192.523438 123.074219 194.394531 121.382812 C 196.539062 119.445312 197.894531 116.644531 197.894531 113.53125 C 197.894531 107.6875 193.140625 102.9375 187.308594 102.9375 C 181.472656 102.9375 176.714844 107.6875 176.714844 113.53125 C 176.714844 116.636719 178.0625 119.441406 180.210938 121.382812 C 182.089844 123.074219 184.582031 124.117188 187.308594 124.117188 Z M 187.308594 124.117188 " fill-opacity="1" fill-rule="nonzero"/><path fill="#552c89" d="M 203.304688 131.46875 C 202.988281 131.105469 202.65625 130.753906 202.320312 130.417969 C 200.257812 128.355469 197.769531 126.722656 195.074219 125.664062 C 192.828125 127.117188 190.164062 127.953125 187.308594 127.953125 C 184.449219 127.953125 181.777344 127.113281 179.535156 125.664062 C 176.324219 126.917969 173.53125 128.90625 171.335938 131.414062 C 170.464844 132.398438 169.691406 133.460938 169.023438 134.597656 C 167.894531 136.503906 167.0625 138.589844 166.566406 140.808594 C 166.808594 141.046875 167.0625 141.265625 167.3125 141.484375 C 167.449219 141.605469 167.59375 141.722656 167.738281 141.84375 C 167.949219 142.019531 168.164062 142.1875 168.378906 142.363281 C 169.015625 142.859375 169.644531 143.308594 170.28125 143.730469 L 170.289062 143.730469 C 170.671875 143.992188 171.023438 144.21875 171.375 144.433594 C 171.398438 144.445312 171.417969 144.457031 171.441406 144.46875 C 171.605469 144.570312 171.753906 144.664062 171.898438 144.746094 C 171.90625 144.746094 171.914062 144.757812 171.917969 144.757812 C 172.082031 144.859375 172.238281 144.945312 172.394531 145.027344 C 172.496094 145.082031 172.589844 145.132812 172.691406 145.183594 C 173.152344 145.445312 173.546875 145.652344 173.957031 145.847656 L 174.273438 146 C 174.582031 146.144531 174.882812 146.28125 175.195312 146.414062 C 175.203125 146.414062 175.210938 146.417969 175.214844 146.417969 L 175.492188 146.53125 C 175.542969 146.550781 175.597656 146.574219 175.648438 146.59375 C 175.972656 146.730469 176.300781 146.863281 176.636719 146.984375 C 176.652344 146.988281 176.664062 146.988281 176.675781 146.996094 C 177.050781 147.140625 177.441406 147.265625 177.824219 147.390625 C 177.847656 147.398438 177.867188 147.402344 177.890625 147.410156 C 177.921875 147.421875 177.960938 147.433594 178 147.445312 C 178.035156 147.460938 178.074219 147.472656 178.105469 147.484375 C 178.125 147.484375 178.3125 147.546875 178.335938 147.554688 C 178.75 147.691406 179.160156 147.808594 179.558594 147.917969 C 180.097656 148.0625 180.625 148.1875 181.132812 148.28125 L 181.175781 148.28125 C 181.175781 148.28125 182.738281 148.5625 182.738281 148.5625 C 182.882812 148.585938 183.027344 148.605469 183.167969 148.625 C 183.226562 148.632812 183.28125 148.644531 183.339844 148.648438 C 183.613281 148.6875 183.890625 148.71875 184.171875 148.742188 C 184.59375 148.789062 185 148.824219 185.394531 148.84375 C 185.53125 148.851562 185.664062 148.863281 185.800781 148.871094 C 185.933594 148.875 186.070312 148.886719 186.203125 148.886719 C 186.328125 148.894531 186.453125 148.902344 186.578125 148.902344 L 186.585938 148.902344 C 187.039062 148.917969 187.46875 148.917969 187.890625 148.902344 L 188.109375 148.902344 C 188.222656 148.902344 188.335938 148.902344 188.449219 148.886719 L 188.503906 148.886719 C 188.597656 148.886719 188.691406 148.882812 188.792969 148.871094 C 189.0625 148.855469 189.332031 148.839844 189.605469 148.820312 C 190.195312 148.777344 190.78125 148.710938 191.363281 148.636719 C 191.550781 148.613281 191.746094 148.585938 191.9375 148.554688 C 194.382812 148.191406 196.714844 147.546875 198.898438 146.625 C 199.058594 146.5625 199.222656 146.488281 199.386719 146.417969 C 199.753906 146.261719 200.074219 146.113281 200.402344 145.960938 L 200.671875 145.84375 L 200.722656 145.816406 C 201.339844 145.503906 201.992188 145.160156 202.640625 144.78125 C 202.8125 144.683594 202.984375 144.582031 203.160156 144.476562 C 203.421875 144.320312 203.679688 144.15625 203.941406 143.988281 C 204.976562 143.320312 205.980469 142.578125 206.945312 141.773438 C 207.113281 141.636719 207.285156 141.492188 207.453125 141.347656 C 207.527344 141.277344 207.601562 141.214844 207.679688 141.148438 C 207.734375 141.101562 207.785156 141.054688 207.835938 141.007812 C 207.902344 140.945312 207.964844 140.890625 208.03125 140.828125 C 207.546875 138.640625 206.730469 136.570312 205.605469 134.664062 C 204.9375 133.539062 204.167969 132.464844 203.296875 131.46875 Z M 203.304688 131.46875 " fill-opacity="1" fill-rule="nonzero"/><path fill="#552c89" d="M 158.722656 129.261719 C 159.332031 130.859375 160.078125 132.410156 160.960938 133.90625 C 161.351562 134.558594 161.765625 135.203125 162.203125 135.832031 C 162.351562 136.042969 162.503906 136.25 162.652344 136.457031 C 162.921875 136.820312 163.199219 137.1875 163.492188 137.535156 C 164.164062 135.5 165.09375 133.574219 166.238281 131.800781 C 164.492188 130.339844 162.511719 129.15625 160.402344 128.328125 C 159.871094 128.679688 159.308594 128.992188 158.722656 129.261719 Z M 158.722656 129.261719 " fill-opacity="1" fill-rule="nonzero"/><path fill="#552c89" d="M 163.21875 116.195312 C 163.21875 112.589844 161.40625 109.398438 158.648438 107.488281 L 158.640625 107.488281 C 158.554688 107.71875 158.472656 107.945312 158.398438 108.175781 C 158.328125 108.382812 158.261719 108.585938 158.191406 108.789062 C 158.058594 109.199219 157.941406 109.613281 157.820312 110.027344 C 157.707031 110.4375 157.601562 110.859375 157.5 111.273438 C 157.257812 112.320312 157.070312 113.378906 156.9375 114.445312 C 156.886719 114.863281 156.84375 115.277344 156.804688 115.699219 L 156.804688 115.71875 C 156.769531 116.136719 156.742188 116.558594 156.722656 116.976562 C 156.667969 118.355469 156.699219 119.742188 156.832031 121.113281 C 156.835938 121.207031 156.84375 121.296875 156.855469 121.382812 C 156.925781 122.066406 157.019531 122.757812 157.132812 123.441406 C 157.214844 123.914062 157.308594 124.398438 157.40625 124.875 C 157.40625 124.882812 157.40625 124.886719 157.414062 124.886719 C 157.433594 125 157.457031 125.113281 157.488281 125.21875 C 157.515625 125.332031 157.539062 125.445312 157.570312 125.558594 C 158.347656 125.144531 159.074219 124.636719 159.71875 124.046875 C 161.871094 122.109375 163.21875 119.308594 163.21875 116.195312 Z M 163.21875 116.195312 " fill-opacity="1" fill-rule="nonzero"/><path fill="#552c89" d="M 146.527344 124.835938 C 146.46875 124.5 146.417969 124.160156 146.375 123.820312 C 145.617188 118.175781 146.03125 112.390625 147.605469 106.871094 C 144.300781 108.671875 142.042969 112.175781 142.042969 116.195312 C 142.042969 119.308594 143.390625 122.105469 145.535156 124.046875 C 145.847656 124.328125 146.179688 124.59375 146.527344 124.835938 Z M 146.527344 124.835938 " fill-opacity="1" fill-rule="nonzero"/><g clip-path="url(#251a629a10)"><path fill="#552c89" d="M 147.609375 129.714844 C 146.640625 129.351562 145.71875 128.886719 144.859375 128.328125 C 138.265625 130.910156 133.40625 136.597656 131.894531 143.480469 C 132.273438 143.835938 132.660156 144.179688 133.0625 144.511719 C 133.925781 145.222656 134.761719 145.835938 135.613281 146.394531 C 136.027344 146.6875 136.390625 146.921875 136.773438 147.140625 C 137.230469 147.429688 137.625 147.648438 138.019531 147.855469 C 138.476562 148.109375 138.878906 148.324219 139.28125 148.511719 L 139.570312 148.644531 C 139.902344 148.800781 140.21875 148.949219 140.550781 149.089844 L 140.839844 149.207031 C 141.230469 149.363281 141.605469 149.519531 142.011719 149.664062 C 142.414062 149.808594 142.820312 149.953125 143.230469 150.078125 C 143.296875 150.097656 143.359375 150.125 143.429688 150.148438 C 143.453125 150.148438 143.644531 150.21875 143.667969 150.222656 C 144.621094 150.535156 145.5625 150.773438 146.46875 150.945312 L 148.066406 151.234375 C 148.78125 151.339844 149.546875 151.421875 150.3125 151.476562 C 150.914062 151.519531 151.410156 151.558594 151.917969 151.566406 L 153.441406 151.566406 C 153.929688 151.566406 154.4375 151.519531 154.9375 151.484375 C 155.734375 151.421875 156.5 151.339844 157.277344 151.21875 C 158.640625 151.019531 159.976562 150.726562 161.261719 150.347656 C 160.203125 149.488281 159.175781 148.570312 158.191406 147.597656 C 153.015625 142.457031 149.484375 136.277344 147.609375 129.714844 Z M 147.609375 129.714844 " fill-opacity="1" fill-rule="nonzero"/></g><g fill="#8e59b7" fill-opacity="1"><g transform="translate(26.257876, 228.682835)"><g><path d="M 4.28125 0 L 4.28125 -35.640625 L 19.5 -35.640625 C 22.21875 -35.640625 24.578125 -35.144531 26.578125 -34.15625 C 28.578125 -33.175781 30.117188 -31.769531 31.203125 -29.9375 C 32.296875 -28.101562 32.84375 -25.914062 32.84375 -23.375 C 32.84375 -20.757812 32.25 -18.507812 31.0625 -16.625 C 29.875 -14.738281 28.210938 -13.320312 26.078125 -12.375 L 33.453125 0 L 24.09375 0 L 17.71875 -11.09375 L 12.375 -11.09375 L 12.375 0 Z M 12.265625 -17.921875 L 18.4375 -17.921875 C 20.4375 -17.921875 21.96875 -18.382812 23.03125 -19.3125 C 24.101562 -20.25 24.640625 -21.585938 24.640625 -23.328125 C 24.640625 -25.054688 24.101562 -26.382812 23.03125 -27.3125 C 21.96875 -28.25 20.4375 -28.71875 18.4375 -28.71875 L 12.265625 -28.71875 Z M 12.265625 -17.921875 "/></g></g></g><g fill="#8e59b7" fill-opacity="1"><g transform="translate(62.104134, 228.682835)"><g><path d="M 16.5 0.71875 C 13.644531 0.71875 11.125 0.125 8.9375 -1.0625 C 6.75 -2.257812 5.039062 -3.914062 3.8125 -6.03125 C 2.59375 -8.15625 1.984375 -10.609375 1.984375 -13.390625 C 1.984375 -16.171875 2.601562 -18.613281 3.84375 -20.71875 C 5.082031 -22.820312 6.796875 -24.46875 8.984375 -25.65625 C 11.171875 -26.851562 13.707031 -27.453125 16.59375 -27.453125 C 19.65625 -27.453125 22.296875 -26.769531 24.515625 -25.40625 C 26.742188 -24.050781 28.441406 -22.148438 29.609375 -19.703125 C 30.785156 -17.265625 31.285156 -14.414062 31.109375 -11.15625 L 9.671875 -11.15625 C 10.046875 -9.320312 10.859375 -7.921875 12.109375 -6.953125 C 13.367188 -5.984375 14.882812 -5.5 16.65625 -5.5 C 17.945312 -5.5 19.125 -5.742188 20.1875 -6.234375 C 21.257812 -6.722656 22.117188 -7.410156 22.765625 -8.296875 L 30.609375 -8.296875 C 29.453125 -5.484375 27.632812 -3.273438 25.15625 -1.671875 C 22.675781 -0.078125 19.789062 0.71875 16.5 0.71875 Z M 9.71875 -16.046875 L 23.625 -16.046875 C 23.1875 -17.671875 22.363281 -18.945312 21.15625 -19.875 C 19.945312 -20.8125 18.445312 -21.28125 16.65625 -21.28125 C 14.957031 -21.28125 13.488281 -20.8125 12.25 -19.875 C 11.007812 -18.945312 10.164062 -17.671875 9.71875 -16.046875 Z M 9.71875 -16.046875 "/></g></g></g><g fill="#8e59b7" fill-opacity="1"><g transform="translate(95.149908, 228.682835)"><g><path d="M 16.59375 0.71875 C 13.75 0.71875 11.222656 0.113281 9.015625 -1.09375 C 6.804688 -2.300781 5.082031 -3.960938 3.84375 -6.078125 C 2.601562 -8.203125 1.984375 -10.640625 1.984375 -13.390625 C 1.984375 -16.140625 2.601562 -18.566406 3.84375 -20.671875 C 5.082031 -22.773438 6.804688 -24.429688 9.015625 -25.640625 C 11.222656 -26.847656 13.75 -27.453125 16.59375 -27.453125 C 19.070312 -27.453125 21.320312 -27 23.34375 -26.09375 C 25.363281 -25.195312 27.035156 -23.925781 28.359375 -22.28125 C 29.679688 -20.632812 30.546875 -18.707031 30.953125 -16.5 L 23.53125 -16.5 C 22.882812 -17.851562 21.96875 -18.910156 20.78125 -19.671875 C 19.59375 -20.441406 18.234375 -20.828125 16.703125 -20.828125 C 14.628906 -20.828125 12.929688 -20.140625 11.609375 -18.765625 C 10.285156 -17.390625 9.625 -15.597656 9.625 -13.390625 C 9.625 -11.222656 10.285156 -9.441406 11.609375 -8.046875 C 12.929688 -6.648438 14.628906 -5.953125 16.703125 -5.953125 C 18.328125 -5.953125 19.757812 -6.382812 21 -7.25 C 22.238281 -8.125 23.128906 -9.289062 23.671875 -10.75 L 31.21875 -10.75 C 30.738281 -8.40625 29.828125 -6.375 28.484375 -4.65625 C 27.148438 -2.945312 25.460938 -1.625 23.421875 -0.6875 C 21.390625 0.25 19.113281 0.71875 16.59375 0.71875 Z M 16.59375 0.71875 "/></g></g></g><g fill="#8e59b7" fill-opacity="1"><g transform="translate(128.246597, 228.682835)"><g><path d="M 3.875 0 L 3.875 -26.734375 L 9.625 -26.734375 L 10.640625 -23.171875 C 11.523438 -24.421875 12.613281 -25.328125 13.90625 -25.890625 C 15.195312 -26.453125 16.828125 -26.734375 18.796875 -26.734375 L 21.6875 -26.734375 L 21.6875 -19.703125 L 18.734375 -19.703125 C 16.523438 -19.703125 14.785156 -19.109375 13.515625 -17.921875 C 12.242188 -16.734375 11.609375 -14.695312 11.609375 -11.8125 L 11.609375 0 Z M 3.875 0 "/></g></g></g><g fill="#8e59b7" fill-opacity="1"><g transform="translate(151.668864, 228.682835)"><g><path d="M 14.515625 0.71875 C 11.046875 0.71875 8.316406 -0.375 6.328125 -2.5625 C 4.347656 -4.757812 3.359375 -7.707031 3.359375 -11.40625 L 3.359375 -26.734375 L 11.09375 -26.734375 L 11.09375 -12.171875 C 11.09375 -10.203125 11.5625 -8.671875 12.5 -7.578125 C 13.4375 -6.492188 14.71875 -5.953125 16.34375 -5.953125 C 18.113281 -5.953125 19.523438 -6.5625 20.578125 -7.78125 C 21.628906 -9.007812 22.15625 -10.675781 22.15625 -12.78125 L 22.15625 -26.734375 L 29.890625 -26.734375 L 29.890625 0 L 24.140625 0 L 23.328125 -3 C 22.273438 -1.75 20.984375 -0.816406 19.453125 -0.203125 C 17.921875 0.410156 16.273438 0.71875 14.515625 0.71875 Z M 14.515625 0.71875 "/></g></g></g><g fill="#8e59b7" fill-opacity="1"><g transform="translate(185.427479, 228.682835)"><g><path d="M 3.875 0 L 3.875 -26.734375 L 11.609375 -26.734375 L 11.609375 0 Z M 2.75 -35.390625 C 2.75 -36.816406 3.210938 -37.976562 4.140625 -38.875 C 5.078125 -39.78125 6.273438 -40.234375 7.734375 -40.234375 C 9.234375 -40.234375 10.441406 -39.78125 11.359375 -38.875 C 12.273438 -37.976562 12.734375 -36.816406 12.734375 -35.390625 C 12.734375 -33.960938 12.273438 -32.796875 11.359375 -31.890625 C 10.441406 -30.992188 9.234375 -30.546875 7.734375 -30.546875 C 6.273438 -30.546875 5.078125 -30.992188 4.140625 -31.890625 C 3.210938 -32.796875 2.75 -33.960938 2.75 -35.390625 Z M 2.75 -35.390625 "/></g></g></g><g fill="#8e59b7" fill-opacity="1"><g transform="translate(200.90655, 228.682835)"><g><path d="M 16.75 0 C 13.351562 0 10.75 -0.875 8.9375 -2.625 C 7.125 -4.375 6.21875 -6.878906 6.21875 -10.140625 L 6.21875 -20.421875 L 1.015625 -20.421875 L 1.015625 -26.734375 L 3.40625 -26.734375 C 4.863281 -26.734375 5.859375 -26.96875 6.390625 -27.4375 C 6.921875 -27.914062 7.285156 -28.835938 7.484375 -30.203125 L 7.9375 -33.65625 L 13.953125 -33.65625 L 13.953125 -26.734375 L 21.28125 -26.734375 L 21.28125 -20.421875 L 13.953125 -20.421875 L 13.953125 -11.296875 C 13.953125 -8.242188 15.445312 -6.71875 18.4375 -6.71875 L 21.640625 -6.71875 L 21.640625 0 Z M 16.75 0 "/></g></g></g><g fill="#552c89" fill-opacity="1"><g transform="translate(224.691461, 228.682835)"><g><path d="M 4.28125 0 L 4.28125 -35.640625 L 27.703125 -35.640625 L 27.703125 -28.828125 L 12.328125 -28.828125 L 12.328125 -21.4375 L 26.328125 -21.4375 L 26.328125 -14.671875 L 12.328125 -14.671875 L 12.328125 -6.875 L 28.265625 -6.875 L 28.265625 0 Z M 4.28125 0 "/></g></g></g><g fill="#552c89" fill-opacity="1"><g transform="translate(255.547752, 228.682835)"><g><path d="M 12.78125 0.515625 C 9.625 0.515625 7.128906 -0.222656 5.296875 -1.703125 C 3.460938 -3.179688 2.546875 -5.210938 2.546875 -7.796875 C 2.546875 -10.273438 3.367188 -12.25 5.015625 -13.71875 C 6.660156 -15.195312 8.875 -15.9375 11.65625 -15.9375 L 21.34375 -15.9375 L 21.34375 -17.15625 C 21.34375 -18.476562 20.863281 -19.539062 19.90625 -20.34375 C 18.957031 -21.144531 17.71875 -21.546875 16.1875 -21.546875 C 14.9375 -21.546875 13.867188 -21.253906 12.984375 -20.671875 C 12.097656 -20.097656 11.535156 -19.332031 11.296875 -18.375 L 3.875 -18.375 C 4.34375 -21.300781 5.65625 -23.546875 7.8125 -25.109375 C 9.96875 -26.671875 12.742188 -27.453125 16.140625 -27.453125 C 20.148438 -27.453125 23.28125 -26.441406 25.53125 -24.421875 C 27.789062 -22.398438 28.921875 -19.625 28.921875 -16.09375 L 28.921875 0 L 23.171875 0 L 22.296875 -3.109375 C 19.960938 -0.691406 16.789062 0.515625 12.78125 0.515625 Z M 10.1875 -8.09375 C 10.1875 -7.175781 10.582031 -6.4375 11.375 -5.875 C 12.175781 -5.320312 13.238281 -5.046875 14.5625 -5.046875 C 16.5 -5.046875 18.101562 -5.601562 19.375 -6.71875 C 20.644531 -7.84375 21.316406 -9.300781 21.390625 -11.09375 L 14.046875 -11.09375 C 12.898438 -11.09375 11.96875 -10.820312 11.25 -10.28125 C 10.539062 -9.738281 10.1875 -9.007812 10.1875 -8.09375 Z M 10.1875 -8.09375 "/></g></g></g><g fill="#552c89" fill-opacity="1"><g transform="translate(287.829748, 228.682835)"><g><path d="M 14.15625 0.71875 C 11.707031 0.71875 9.578125 0.328125 7.765625 -0.453125 C 5.953125 -1.234375 4.539062 -2.320312 3.53125 -3.71875 C 2.53125 -5.113281 2.03125 -6.742188 2.03125 -8.609375 L 9.625 -8.609375 C 9.65625 -7.515625 10.078125 -6.644531 10.890625 -6 C 11.710938 -5.363281 12.835938 -5.046875 14.265625 -5.046875 C 15.484375 -5.046875 16.429688 -5.273438 17.109375 -5.734375 C 17.785156 -6.191406 18.125 -6.8125 18.125 -7.59375 C 18.125 -8.4375 17.664062 -9.140625 16.75 -9.703125 C 15.832031 -10.265625 14.335938 -10.710938 12.265625 -11.046875 C 8.878906 -11.660156 6.382812 -12.644531 4.78125 -14 C 3.1875 -15.363281 2.390625 -17.144531 2.390625 -19.34375 C 2.390625 -21.957031 3.363281 -23.960938 5.3125 -25.359375 C 7.269531 -26.753906 10.046875 -27.453125 13.640625 -27.453125 C 17.210938 -27.453125 20.003906 -26.6875 22.015625 -25.15625 C 24.035156 -23.625 25.132812 -21.453125 25.3125 -18.640625 L 17.921875 -18.640625 C 17.859375 -19.660156 17.441406 -20.445312 16.671875 -21 C 15.910156 -21.5625 14.882812 -21.84375 13.59375 -21.84375 C 12.4375 -21.84375 11.523438 -21.617188 10.859375 -21.171875 C 10.203125 -20.734375 9.875 -20.125 9.875 -19.34375 C 9.875 -18.53125 10.304688 -17.894531 11.171875 -17.4375 C 12.035156 -16.976562 13.609375 -16.515625 15.890625 -16.046875 C 22.472656 -14.710938 25.765625 -11.875 25.765625 -7.53125 C 25.765625 -4.988281 24.738281 -2.976562 22.6875 -1.5 C 20.632812 -0.0195312 17.789062 0.71875 14.15625 0.71875 Z M 14.15625 0.71875 "/></g></g></g><g fill="#552c89" fill-opacity="1"><g transform="translate(315.681884, 228.682835)"><g><path d="M 16.5 0.71875 C 13.644531 0.71875 11.125 0.125 8.9375 -1.0625 C 6.75 -2.257812 5.039062 -3.914062 3.8125 -6.03125 C 2.59375 -8.15625 1.984375 -10.609375 1.984375 -13.390625 C 1.984375 -16.171875 2.601562 -18.613281 3.84375 -20.71875 C 5.082031 -22.820312 6.796875 -24.46875 8.984375 -25.65625 C 11.171875 -26.851562 13.707031 -27.453125 16.59375 -27.453125 C 19.65625 -27.453125 22.296875 -26.769531 24.515625 -25.40625 C 26.742188 -24.050781 28.441406 -22.148438 29.609375 -19.703125 C 30.785156 -17.265625 31.285156 -14.414062 31.109375 -11.15625 L 9.671875 -11.15625 C 10.046875 -9.320312 10.859375 -7.921875 12.109375 -6.953125 C 13.367188 -5.984375 14.882812 -5.5 16.65625 -5.5 C 17.945312 -5.5 19.125 -5.742188 20.1875 -6.234375 C 21.257812 -6.722656 22.117188 -7.410156 22.765625 -8.296875 L 30.609375 -8.296875 C 29.453125 -5.484375 27.632812 -3.273438 25.15625 -1.671875 C 22.675781 -0.078125 19.789062 0.71875 16.5 0.71875 Z M 9.71875 -16.046875 L 23.625 -16.046875 C 23.1875 -17.671875 22.363281 -18.945312 21.15625 -19.875 C 19.945312 -20.8125 18.445312 -21.28125 16.65625 -21.28125 C 14.957031 -21.28125 13.488281 -20.8125 12.25 -19.875 C 11.007812 -18.945312 10.164062 -17.671875 9.71875 -16.046875 Z M 9.71875 -16.046875 "/></g></g></g><g fill="#af88d1" fill-opacity="1"><g transform="translate(32.534763, 265.365091)"><g><path d="M 9.015625 -13.203125 L 8.796875 -12.09375 C 7.796875 -12.3125 6.945312 -12.421875 6.25 -12.421875 C 3.75 -12.421875 2.5 -11.660156 2.5 -10.140625 C 2.5 -9.554688 2.679688 -9.109375 3.046875 -8.796875 C 3.410156 -8.492188 3.875 -8.242188 4.4375 -8.046875 C 5 -7.847656 5.601562 -7.664062 6.25 -7.5 C 6.894531 -7.34375 7.492188 -7.128906 8.046875 -6.859375 C 9.359375 -6.210938 10.015625 -5.222656 10.015625 -3.890625 C 10.015625 -2.554688 9.515625 -1.550781 8.515625 -0.875 C 7.660156 -0.28125 6.539062 0.015625 5.15625 0.015625 C 3.425781 0.015625 1.96875 -0.375 0.78125 -1.15625 L 1.28125 -2.15625 C 1.625 -1.90625 2.117188 -1.671875 2.765625 -1.453125 C 3.410156 -1.242188 4.035156 -1.140625 4.640625 -1.140625 C 5.828125 -1.140625 6.765625 -1.332031 7.453125 -1.71875 C 8.273438 -2.195312 8.6875 -2.882812 8.6875 -3.78125 C 8.6875 -4.4375 8.503906 -4.945312 8.140625 -5.3125 C 7.773438 -5.675781 7.3125 -5.972656 6.75 -6.203125 C 6.1875 -6.429688 5.582031 -6.625 4.9375 -6.78125 C 4.289062 -6.945312 3.691406 -7.148438 3.140625 -7.390625 C 1.835938 -7.960938 1.1875 -8.804688 1.1875 -9.921875 C 1.1875 -11.046875 1.570312 -11.9375 2.34375 -12.59375 C 3.113281 -13.257812 4.210938 -13.59375 5.640625 -13.59375 C 6.734375 -13.59375 7.859375 -13.460938 9.015625 -13.203125 Z M 9.015625 -13.203125 "/></g></g></g><g fill="#af88d1" fill-opacity="1"><g transform="translate(46.213768, 265.365091)"><g><path d="M 2.828125 -9.78125 L 2.828125 0 L 1.5625 0 L 1.5625 -9.671875 Z M 2.140625 -12.28125 C 1.890625 -12.28125 1.695312 -12.363281 1.5625 -12.53125 C 1.425781 -12.695312 1.359375 -12.90625 1.359375 -13.15625 C 1.359375 -13.414062 1.429688 -13.625 1.578125 -13.78125 C 1.722656 -13.945312 1.925781 -14.03125 2.1875 -14.03125 C 2.445312 -14.03125 2.65625 -13.945312 2.8125 -13.78125 C 2.976562 -13.625 3.0625 -13.40625 3.0625 -13.125 C 3.0625 -12.84375 2.972656 -12.628906 2.796875 -12.484375 C 2.617188 -12.347656 2.398438 -12.28125 2.140625 -12.28125 Z M 2.140625 -12.28125 "/></g></g></g><g fill="#af88d1" fill-opacity="1"><g transform="translate(53.334563, 265.365091)"><g><path d="M 4.765625 -8.609375 C 4.035156 -8.578125 3.253906 -8.34375 2.421875 -7.90625 L 2.421875 0 L 1.15625 0 L 1.15625 -9.671875 L 2.421875 -9.78125 L 2.421875 -8.6875 C 3.285156 -9.34375 4.125 -9.691406 4.9375 -9.734375 C 6.300781 -9.734375 7.242188 -9.394531 7.765625 -8.71875 C 8.742188 -9.351562 9.691406 -9.691406 10.609375 -9.734375 C 11.398438 -9.734375 12.003906 -9.632812 12.421875 -9.4375 C 12.847656 -9.25 13.203125 -8.976562 13.484375 -8.625 C 13.765625 -8.269531 13.90625 -7.769531 13.90625 -7.125 L 13.90625 0 L 12.640625 0 L 12.640625 -6.796875 C 12.640625 -7.273438 12.53125 -7.644531 12.3125 -7.90625 C 11.914062 -8.375 11.347656 -8.609375 10.609375 -8.609375 C 9.835938 -8.609375 9.007812 -8.378906 8.125 -7.921875 C 8.195312 -7.660156 8.234375 -7.394531 8.234375 -7.125 L 8.234375 0 L 6.96875 0 L 6.96875 -6.796875 C 6.96875 -7.273438 6.863281 -7.644531 6.65625 -7.90625 C 6.25 -8.375 5.617188 -8.609375 4.765625 -8.609375 Z M 4.765625 -8.609375 "/></g></g></g><g fill="#af88d1" fill-opacity="1"><g transform="translate(71.482432, 265.365091)"><g><path d="M 7.671875 -1.359375 C 7.242188 -0.929688 6.765625 -0.609375 6.234375 -0.390625 C 5.710938 -0.179688 5.265625 -0.0625 4.890625 -0.03125 C 4.523438 -0.0078125 4.160156 0 3.796875 0 C 3.429688 0 3.035156 -0.03125 2.609375 -0.09375 L 2.609375 4.75 L 1.359375 4.84375 L 1.359375 -9.171875 C 1.640625 -9.265625 2.070312 -9.398438 2.65625 -9.578125 C 3.25 -9.765625 3.875 -9.859375 4.53125 -9.859375 C 5.195312 -9.859375 5.769531 -9.800781 6.25 -9.6875 C 6.738281 -9.582031 7.191406 -9.375 7.609375 -9.0625 C 8.578125 -8.3125 9.0625 -7.070312 9.0625 -5.34375 C 9.0625 -3.613281 8.597656 -2.285156 7.671875 -1.359375 Z M 2.609375 -1.078125 C 2.992188 -0.992188 3.410156 -0.953125 3.859375 -0.953125 C 5.117188 -0.953125 6.085938 -1.320312 6.765625 -2.0625 C 7.453125 -2.8125 7.796875 -3.863281 7.796875 -5.21875 C 7.796875 -6.582031 7.445312 -7.550781 6.75 -8.125 C 6.257812 -8.53125 5.628906 -8.734375 4.859375 -8.734375 C 4.097656 -8.734375 3.347656 -8.625 2.609375 -8.40625 Z M 2.609375 -1.078125 "/></g></g></g><g fill="#af88d1" fill-opacity="1"><g transform="translate(84.406945, 265.365091)"><g><path d="M 1.359375 0 L 1.359375 -14.421875 L 2.609375 -14.515625 L 2.609375 0 Z M 1.359375 0 "/></g></g></g><g fill="#af88d1" fill-opacity="1"><g transform="translate(90.695872, 265.365091)"><g><path d="M 2.828125 -9.78125 L 2.828125 0 L 1.5625 0 L 1.5625 -9.671875 Z M 2.140625 -12.28125 C 1.890625 -12.28125 1.695312 -12.363281 1.5625 -12.53125 C 1.425781 -12.695312 1.359375 -12.90625 1.359375 -13.15625 C 1.359375 -13.414062 1.429688 -13.625 1.578125 -13.78125 C 1.722656 -13.945312 1.925781 -14.03125 2.1875 -14.03125 C 2.445312 -14.03125 2.65625 -13.945312 2.8125 -13.78125 C 2.976562 -13.625 3.0625 -13.40625 3.0625 -13.125 C 3.0625 -12.84375 2.972656 -12.628906 2.796875 -12.484375 C 2.617188 -12.347656 2.398438 -12.28125 2.140625 -12.28125 Z M 2.140625 -12.28125 "/></g></g></g><g fill="#af88d1" fill-opacity="1"><g transform="translate(97.81667, 265.365091)"><g><path d="M 1.859375 -11.96875 C 1.859375 -13.71875 2.828125 -14.59375 4.765625 -14.59375 C 5.265625 -14.59375 5.707031 -14.539062 6.09375 -14.4375 L 5.90625 -13.359375 C 5.46875 -13.421875 5.097656 -13.453125 4.796875 -13.453125 C 4.492188 -13.453125 4.21875 -13.398438 3.96875 -13.296875 C 3.394531 -13.035156 3.109375 -12.441406 3.109375 -11.515625 L 3.109375 -9.671875 L 5.515625 -9.671875 L 5.515625 -8.5625 L 3.109375 -8.5625 L 3.109375 0 L 1.859375 0 L 1.859375 -8.5625 L 0.78125 -8.5625 L 0.953125 -9.671875 L 1.859375 -9.671875 Z M 1.859375 -11.96875 "/></g></g></g><g fill="#af88d1" fill-opacity="1"><g transform="translate(106.697916, 265.365091)"><g><path d="M 2.828125 -9.78125 L 2.828125 0 L 1.5625 0 L 1.5625 -9.671875 Z M 2.140625 -12.28125 C 1.890625 -12.28125 1.695312 -12.363281 1.5625 -12.53125 C 1.425781 -12.695312 1.359375 -12.90625 1.359375 -13.15625 C 1.359375 -13.414062 1.429688 -13.625 1.578125 -13.78125 C 1.722656 -13.945312 1.925781 -14.03125 2.1875 -14.03125 C 2.445312 -14.03125 2.65625 -13.945312 2.8125 -13.78125 C 2.976562 -13.625 3.0625 -13.40625 3.0625 -13.125 C 3.0625 -12.84375 2.972656 -12.628906 2.796875 -12.484375 C 2.617188 -12.347656 2.398438 -12.28125 2.140625 -12.28125 Z M 2.140625 -12.28125 "/></g></g></g><g fill="#af88d1" fill-opacity="1"><g transform="translate(113.818708, 265.365091)"><g><path d="M 2.328125 -4.453125 C 2.328125 -2.179688 3.410156 -1.046875 5.578125 -1.046875 C 6.492188 -1.046875 7.332031 -1.164062 8.09375 -1.40625 C 8.28125 -1.476562 8.414062 -1.53125 8.5 -1.5625 L 8.796875 -0.546875 C 8.335938 -0.273438 7.515625 -0.0820312 6.328125 0.03125 C 5.992188 0.0625 5.640625 0.078125 5.265625 0.078125 C 4.179688 0.078125 3.28125 -0.191406 2.5625 -0.734375 C 1.5625 -1.472656 1.0625 -2.695312 1.0625 -4.40625 C 1.0625 -6.125 1.507812 -7.441406 2.40625 -8.359375 C 3.300781 -9.285156 4.390625 -9.75 5.671875 -9.75 C 6.953125 -9.75 7.914062 -9.335938 8.5625 -8.515625 C 9.050781 -7.859375 9.296875 -6.988281 9.296875 -5.90625 C 9.296875 -5.644531 9.28125 -5.375 9.25 -5.09375 L 2.34375 -5.09375 C 2.332031 -4.988281 2.328125 -4.878906 2.328125 -4.765625 Z M 5.75 -8.5625 C 4.945312 -8.5625 4.257812 -8.316406 3.6875 -7.828125 C 3.125 -7.347656 2.734375 -6.726562 2.515625 -5.96875 L 8.15625 -5.96875 C 8.082031 -7.394531 7.523438 -8.222656 6.484375 -8.453125 C 6.253906 -8.523438 6.007812 -8.5625 5.75 -8.5625 Z M 5.75 -8.5625 "/></g></g></g><g fill="#af88d1" fill-opacity="1"><g transform="translate(126.704527, 265.365091)"><g><path d="M 6.21875 -8.328125 C 6.007812 -8.441406 5.785156 -8.5 5.546875 -8.5 C 5.316406 -8.5 5.191406 -8.492188 5.171875 -8.484375 C 4.679688 -8.484375 4.1875 -8.304688 3.6875 -7.953125 C 3.1875 -7.597656 2.765625 -7.195312 2.421875 -6.75 L 2.421875 0 L 1.15625 0 L 1.15625 -9.671875 L 2.421875 -9.78125 L 2.421875 -7.609375 C 2.898438 -8.210938 3.304688 -8.640625 3.640625 -8.890625 C 4.253906 -9.347656 4.847656 -9.59375 5.421875 -9.625 C 5.492188 -9.632812 5.632812 -9.640625 5.84375 -9.640625 C 6.050781 -9.640625 6.34375 -9.585938 6.71875 -9.484375 Z M 6.21875 -8.328125 "/></g></g></g><g fill="#af88d1" fill-opacity="1"><g transform="translate(136.320921, 265.365091)"><g/></g></g><g fill="#af88d1" fill-opacity="1"><g transform="translate(145.008718, 265.365091)"><g><path d="M 0.78125 -9.671875 L 2.1875 -9.78125 L 5 -1.484375 L 8.03125 -9.671875 L 9.421875 -9.78125 L 5.515625 0 L 4.359375 0 Z M 0.78125 -9.671875 "/></g></g></g><g fill="#af88d1" fill-opacity="1"><g transform="translate(158.126691, 265.365091)"><g><path d="M 1.3125 -2.484375 C 1.082031 -3.097656 0.96875 -3.816406 0.96875 -4.640625 C 0.96875 -6.234375 1.410156 -7.484375 2.296875 -8.390625 C 3.191406 -9.296875 4.3125 -9.75 5.65625 -9.75 C 7.757812 -9.75 9.140625 -8.898438 9.796875 -7.203125 C 10.035156 -6.578125 10.15625 -5.851562 10.15625 -5.03125 C 10.15625 -3.445312 9.707031 -2.195312 8.8125 -1.28125 C 7.925781 -0.375 6.816406 0.078125 5.484375 0.078125 C 3.378906 0.078125 1.988281 -0.773438 1.3125 -2.484375 Z M 2.21875 -4.78125 C 2.21875 -3.59375 2.523438 -2.671875 3.140625 -2.015625 C 3.753906 -1.367188 4.546875 -1.046875 5.515625 -1.046875 C 6.484375 -1.046875 7.289062 -1.390625 7.9375 -2.078125 C 8.582031 -2.765625 8.90625 -3.703125 8.90625 -4.890625 C 8.90625 -6.078125 8.597656 -7 7.984375 -7.65625 C 7.378906 -8.3125 6.585938 -8.640625 5.609375 -8.640625 C 4.640625 -8.640625 3.832031 -8.289062 3.1875 -7.59375 C 2.539062 -6.90625 2.21875 -5.96875 2.21875 -4.78125 Z M 2.21875 -4.78125 "/></g></g></g><g fill="#af88d1" fill-opacity="1"><g transform="translate(172.153914, 265.365091)"><g><path d="M 5.59375 -0.34375 C 5.363281 -0.113281 4.945312 0 4.34375 0 C 3.488281 0 2.910156 -0.21875 2.609375 -0.65625 C 2.109375 -1.132812 1.859375 -1.78125 1.859375 -2.59375 L 1.859375 -8.5625 L 0.78125 -8.5625 L 0.953125 -9.671875 L 1.859375 -9.671875 L 1.859375 -11.59375 L 3.109375 -11.71875 L 3.109375 -9.671875 L 5.359375 -9.671875 L 5.359375 -8.5625 L 3.109375 -8.5625 L 3.109375 -2.28125 C 3.109375 -1.53125 3.5 -1.15625 4.28125 -1.15625 C 4.613281 -1.15625 4.972656 -1.234375 5.359375 -1.390625 Z M 5.59375 -0.34375 "/></g></g></g><g fill="#af88d1" fill-opacity="1"><g transform="translate(181.480121, 265.365091)"><g><path d="M 6.21875 -8.328125 C 6.007812 -8.441406 5.785156 -8.5 5.546875 -8.5 C 5.316406 -8.5 5.191406 -8.492188 5.171875 -8.484375 C 4.679688 -8.484375 4.1875 -8.304688 3.6875 -7.953125 C 3.1875 -7.597656 2.765625 -7.195312 2.421875 -6.75 L 2.421875 0 L 1.15625 0 L 1.15625 -9.671875 L 2.421875 -9.78125 L 2.421875 -7.609375 C 2.898438 -8.210938 3.304688 -8.640625 3.640625 -8.890625 C 4.253906 -9.347656 4.847656 -9.59375 5.421875 -9.625 C 5.492188 -9.632812 5.632812 -9.640625 5.84375 -9.640625 C 6.050781 -9.640625 6.34375 -9.585938 6.71875 -9.484375 Z M 6.21875 -8.328125 "/></g></g></g><g fill="#af88d1" fill-opacity="1"><g transform="translate(191.096515, 265.365091)"><g><path d="M 2.328125 -4.453125 C 2.328125 -2.179688 3.410156 -1.046875 5.578125 -1.046875 C 6.492188 -1.046875 7.332031 -1.164062 8.09375 -1.40625 C 8.28125 -1.476562 8.414062 -1.53125 8.5 -1.5625 L 8.796875 -0.546875 C 8.335938 -0.273438 7.515625 -0.0820312 6.328125 0.03125 C 5.992188 0.0625 5.640625 0.078125 5.265625 0.078125 C 4.179688 0.078125 3.28125 -0.191406 2.5625 -0.734375 C 1.5625 -1.472656 1.0625 -2.695312 1.0625 -4.40625 C 1.0625 -6.125 1.507812 -7.441406 2.40625 -8.359375 C 3.300781 -9.285156 4.390625 -9.75 5.671875 -9.75 C 6.953125 -9.75 7.914062 -9.335938 8.5625 -8.515625 C 9.050781 -7.859375 9.296875 -6.988281 9.296875 -5.90625 C 9.296875 -5.644531 9.28125 -5.375 9.25 -5.09375 L 2.34375 -5.09375 C 2.332031 -4.988281 2.328125 -4.878906 2.328125 -4.765625 Z M 5.75 -8.5625 C 4.945312 -8.5625 4.257812 -8.316406 3.6875 -7.828125 C 3.125 -7.347656 2.734375 -6.726562 2.515625 -5.96875 L 8.15625 -5.96875 C 8.082031 -7.394531 7.523438 -8.222656 6.484375 -8.453125 C 6.253906 -8.523438 6.007812 -8.5625 5.75 -8.5625 Z M 5.75 -8.5625 "/></g></g></g><g fill="#af88d1" fill-opacity="1"><g transform="translate(203.982334, 265.365091)"><g/></g></g><g fill="#af88d1" fill-opacity="1"><g transform="translate(212.670132, 265.365091)"><g><path d="M 6.21875 -8.328125 C 6.007812 -8.441406 5.785156 -8.5 5.546875 -8.5 C 5.316406 -8.5 5.191406 -8.492188 5.171875 -8.484375 C 4.679688 -8.484375 4.1875 -8.304688 3.6875 -7.953125 C 3.1875 -7.597656 2.765625 -7.195312 2.421875 -6.75 L 2.421875 0 L 1.15625 0 L 1.15625 -9.671875 L 2.421875 -9.78125 L 2.421875 -7.609375 C 2.898438 -8.210938 3.304688 -8.640625 3.640625 -8.890625 C 4.253906 -9.347656 4.847656 -9.59375 5.421875 -9.625 C 5.492188 -9.632812 5.632812 -9.640625 5.84375 -9.640625 C 6.050781 -9.640625 6.34375 -9.585938 6.71875 -9.484375 Z M 6.21875 -8.328125 "/></g></g></g><g fill="#af88d1" fill-opacity="1"><g transform="translate(222.286525, 265.365091)"><g><path d="M 2.328125 -4.453125 C 2.328125 -2.179688 3.410156 -1.046875 5.578125 -1.046875 C 6.492188 -1.046875 7.332031 -1.164062 8.09375 -1.40625 C 8.28125 -1.476562 8.414062 -1.53125 8.5 -1.5625 L 8.796875 -0.546875 C 8.335938 -0.273438 7.515625 -0.0820312 6.328125 0.03125 C 5.992188 0.0625 5.640625 0.078125 5.265625 0.078125 C 4.179688 0.078125 3.28125 -0.191406 2.5625 -0.734375 C 1.5625 -1.472656 1.0625 -2.695312 1.0625 -4.40625 C 1.0625 -6.125 1.507812 -7.441406 2.40625 -8.359375 C 3.300781 -9.285156 4.390625 -9.75 5.671875 -9.75 C 6.953125 -9.75 7.914062 -9.335938 8.5625 -8.515625 C 9.050781 -7.859375 9.296875 -6.988281 9.296875 -5.90625 C 9.296875 -5.644531 9.28125 -5.375 9.25 -5.09375 L 2.34375 -5.09375 C 2.332031 -4.988281 2.328125 -4.878906 2.328125 -4.765625 Z M 5.75 -8.5625 C 4.945312 -8.5625 4.257812 -8.316406 3.6875 -7.828125 C 3.125 -7.347656 2.734375 -6.726562 2.515625 -5.96875 L 8.15625 -5.96875 C 8.082031 -7.394531 7.523438 -8.222656 6.484375 -8.453125 C 6.253906 -8.523438 6.007812 -8.5625 5.75 -8.5625 Z M 5.75 -8.5625 "/></g></g></g><g fill="#af88d1" fill-opacity="1"><g transform="translate(235.172345, 265.365091)"><g><path d="M 7.5625 -8.375 C 7.039062 -8.550781 6.5 -8.640625 5.9375 -8.640625 C 4.820312 -8.640625 3.921875 -8.273438 3.234375 -7.546875 C 2.554688 -6.828125 2.21875 -5.804688 2.21875 -4.484375 C 2.21875 -2.191406 3.285156 -1.046875 5.421875 -1.046875 C 6.273438 -1.046875 7.148438 -1.1875 8.046875 -1.46875 C 8.234375 -1.519531 8.34375 -1.5625 8.375 -1.59375 L 8.6875 -0.546875 C 8.238281 -0.273438 7.421875 -0.0820312 6.234375 0.03125 C 5.898438 0.0625 5.546875 0.078125 5.171875 0.078125 C 4.066406 0.078125 3.160156 -0.191406 2.453125 -0.734375 C 1.460938 -1.484375 0.96875 -2.71875 0.96875 -4.4375 C 0.96875 -6.15625 1.425781 -7.472656 2.34375 -8.390625 C 3.269531 -9.316406 4.460938 -9.78125 5.921875 -9.78125 C 6.390625 -9.78125 6.882812 -9.71875 7.40625 -9.59375 C 7.925781 -9.46875 8.328125 -9.273438 8.609375 -9.015625 L 8.609375 -6.484375 L 7.671875 -6.34375 Z M 7.5625 -8.375 "/></g></g></g><g fill="#af88d1" fill-opacity="1"><g transform="translate(247.535838, 265.365091)"><g><path d="M 6.21875 -8.328125 C 6.007812 -8.441406 5.785156 -8.5 5.546875 -8.5 C 5.316406 -8.5 5.191406 -8.492188 5.171875 -8.484375 C 4.679688 -8.484375 4.1875 -8.304688 3.6875 -7.953125 C 3.1875 -7.597656 2.765625 -7.195312 2.421875 -6.75 L 2.421875 0 L 1.15625 0 L 1.15625 -9.671875 L 2.421875 -9.78125 L 2.421875 -7.609375 C 2.898438 -8.210938 3.304688 -8.640625 3.640625 -8.890625 C 4.253906 -9.347656 4.847656 -9.59375 5.421875 -9.625 C 5.492188 -9.632812 5.632812 -9.640625 5.84375 -9.640625 C 6.050781 -9.640625 6.34375 -9.585938 6.71875 -9.484375 Z M 6.21875 -8.328125 "/></g></g></g><g fill="#af88d1" fill-opacity="1"><g transform="translate(257.152232, 265.365091)"><g><path d="M 3.640625 -1.234375 C 3.921875 -1.128906 4.367188 -1.078125 4.984375 -1.078125 C 5.609375 -1.078125 6.410156 -1.332031 7.390625 -1.84375 L 7.390625 -9.671875 L 8.65625 -9.78125 L 8.65625 0 L 7.390625 0 L 7.390625 -1.046875 C 6.441406 -0.304688 5.46875 0.0625 4.46875 0.0625 C 3.226562 0.0625 2.332031 -0.304688 1.78125 -1.046875 C 1.5 -1.410156 1.359375 -1.914062 1.359375 -2.5625 L 1.359375 -9.671875 L 2.609375 -9.78125 L 2.609375 -2.890625 C 2.609375 -2.085938 2.953125 -1.535156 3.640625 -1.234375 Z M 3.640625 -1.234375 "/></g></g></g><g fill="#af88d1" fill-opacity="1"><g transform="translate(270.05741, 265.365091)"><g><path d="M 5.59375 -0.34375 C 5.363281 -0.113281 4.945312 0 4.34375 0 C 3.488281 0 2.910156 -0.21875 2.609375 -0.65625 C 2.109375 -1.132812 1.859375 -1.78125 1.859375 -2.59375 L 1.859375 -8.5625 L 0.78125 -8.5625 L 0.953125 -9.671875 L 1.859375 -9.671875 L 1.859375 -11.59375 L 3.109375 -11.71875 L 3.109375 -9.671875 L 5.359375 -9.671875 L 5.359375 -8.5625 L 3.109375 -8.5625 L 3.109375 -2.28125 C 3.109375 -1.53125 3.5 -1.15625 4.28125 -1.15625 C 4.613281 -1.15625 4.972656 -1.234375 5.359375 -1.390625 Z M 5.59375 -0.34375 "/></g></g></g><g fill="#af88d1" fill-opacity="1"><g transform="translate(279.383616, 265.365091)"><g><path d="M 2.328125 -4.453125 C 2.328125 -2.179688 3.410156 -1.046875 5.578125 -1.046875 C 6.492188 -1.046875 7.332031 -1.164062 8.09375 -1.40625 C 8.28125 -1.476562 8.414062 -1.53125 8.5 -1.5625 L 8.796875 -0.546875 C 8.335938 -0.273438 7.515625 -0.0820312 6.328125 0.03125 C 5.992188 0.0625 5.640625 0.078125 5.265625 0.078125 C 4.179688 0.078125 3.28125 -0.191406 2.5625 -0.734375 C 1.5625 -1.472656 1.0625 -2.695312 1.0625 -4.40625 C 1.0625 -6.125 1.507812 -7.441406 2.40625 -8.359375 C 3.300781 -9.285156 4.390625 -9.75 5.671875 -9.75 C 6.953125 -9.75 7.914062 -9.335938 8.5625 -8.515625 C 9.050781 -7.859375 9.296875 -6.988281 9.296875 -5.90625 C 9.296875 -5.644531 9.28125 -5.375 9.25 -5.09375 L 2.34375 -5.09375 C 2.332031 -4.988281 2.328125 -4.878906 2.328125 -4.765625 Z M 5.75 -8.5625 C 4.945312 -8.5625 4.257812 -8.316406 3.6875 -7.828125 C 3.125 -7.347656 2.734375 -6.726562 2.515625 -5.96875 L 8.15625 -5.96875 C 8.082031 -7.394531 7.523438 -8.222656 6.484375 -8.453125 C 6.253906 -8.523438 6.007812 -8.5625 5.75 -8.5625 Z M 5.75 -8.5625 "/></g></g></g><g fill="#af88d1" fill-opacity="1"><g transform="translate(292.269449, 265.365091)"><g><path d="M 4.765625 -8.609375 C 4.035156 -8.578125 3.253906 -8.34375 2.421875 -7.90625 L 2.421875 0 L 1.15625 0 L 1.15625 -9.671875 L 2.421875 -9.78125 L 2.421875 -8.6875 C 3.285156 -9.34375 4.125 -9.691406 4.9375 -9.734375 C 6.300781 -9.734375 7.242188 -9.394531 7.765625 -8.71875 C 8.742188 -9.351562 9.691406 -9.691406 10.609375 -9.734375 C 11.398438 -9.734375 12.003906 -9.632812 12.421875 -9.4375 C 12.847656 -9.25 13.203125 -8.976562 13.484375 -8.625 C 13.765625 -8.269531 13.90625 -7.769531 13.90625 -7.125 L 13.90625 0 L 12.640625 0 L 12.640625 -6.796875 C 12.640625 -7.273438 12.53125 -7.644531 12.3125 -7.90625 C 11.914062 -8.375 11.347656 -8.609375 10.609375 -8.609375 C 9.835938 -8.609375 9.007812 -8.378906 8.125 -7.921875 C 8.195312 -7.660156 8.234375 -7.394531 8.234375 -7.125 L 8.234375 0 L 6.96875 0 L 6.96875 -6.796875 C 6.96875 -7.273438 6.863281 -7.644531 6.65625 -7.90625 C 6.25 -8.375 5.617188 -8.609375 4.765625 -8.609375 Z M 4.765625 -8.609375 "/></g></g></g><g fill="#af88d1" fill-opacity="1"><g transform="translate(310.417315, 265.365091)"><g><path d="M 2.328125 -4.453125 C 2.328125 -2.179688 3.410156 -1.046875 5.578125 -1.046875 C 6.492188 -1.046875 7.332031 -1.164062 8.09375 -1.40625 C 8.28125 -1.476562 8.414062 -1.53125 8.5 -1.5625 L 8.796875 -0.546875 C 8.335938 -0.273438 7.515625 -0.0820312 6.328125 0.03125 C 5.992188 0.0625 5.640625 0.078125 5.265625 0.078125 C 4.179688 0.078125 3.28125 -0.191406 2.5625 -0.734375 C 1.5625 -1.472656 1.0625 -2.695312 1.0625 -4.40625 C 1.0625 -6.125 1.507812 -7.441406 2.40625 -8.359375 C 3.300781 -9.285156 4.390625 -9.75 5.671875 -9.75 C 6.953125 -9.75 7.914062 -9.335938 8.5625 -8.515625 C 9.050781 -7.859375 9.296875 -6.988281 9.296875 -5.90625 C 9.296875 -5.644531 9.28125 -5.375 9.25 -5.09375 L 2.34375 -5.09375 C 2.332031 -4.988281 2.328125 -4.878906 2.328125 -4.765625 Z M 5.75 -8.5625 C 4.945312 -8.5625 4.257812 -8.316406 3.6875 -7.828125 C 3.125 -7.347656 2.734375 -6.726562 2.515625 -5.96875 L 8.15625 -5.96875 C 8.082031 -7.394531 7.523438 -8.222656 6.484375 -8.453125 C 6.253906 -8.523438 6.007812 -8.5625 5.75 -8.5625 Z M 5.75 -8.5625 "/></g></g></g><g fill="#af88d1" fill-opacity="1"><g transform="translate(323.303148, 265.365091)"><g><path d="M 2.421875 -8.609375 C 3.390625 -9.316406 4.304688 -9.691406 5.171875 -9.734375 C 5.953125 -9.734375 6.554688 -9.632812 6.984375 -9.4375 C 7.410156 -9.25 7.757812 -8.976562 8.03125 -8.625 C 8.3125 -8.269531 8.453125 -7.769531 8.453125 -7.125 L 8.453125 0 L 7.203125 0 L 7.203125 -6.796875 C 7.203125 -7.273438 7.097656 -7.644531 6.890625 -7.90625 C 6.472656 -8.375 5.84375 -8.609375 5 -8.609375 C 4.1875 -8.578125 3.328125 -8.316406 2.421875 -7.828125 L 2.421875 0 L 1.15625 0 L 1.15625 -9.671875 L 2.421875 -9.78125 Z M 2.421875 -8.609375 "/></g></g></g><g fill="#af88d1" fill-opacity="1"><g transform="translate(336.014876, 265.365091)"><g><path d="M 5.59375 -0.34375 C 5.363281 -0.113281 4.945312 0 4.34375 0 C 3.488281 0 2.910156 -0.21875 2.609375 -0.65625 C 2.109375 -1.132812 1.859375 -1.78125 1.859375 -2.59375 L 1.859375 -8.5625 L 0.78125 -8.5625 L 0.953125 -9.671875 L 1.859375 -9.671875 L 1.859375 -11.59375 L 3.109375 -11.71875 L 3.109375 -9.671875 L 5.359375 -9.671875 L 5.359375 -8.5625 L 3.109375 -8.5625 L 3.109375 -2.28125 C 3.109375 -1.53125 3.5 -1.15625 4.28125 -1.15625 C 4.613281 -1.15625 4.972656 -1.234375 5.359375 -1.390625 Z M 5.59375 -0.34375 "/></g></g></g></svg>