<svg xmlns="http://www.w3.org/2000/svg" xmlns:xlink="http://www.w3.org/1999/xlink" width="500" zoomAndPan="magnify" viewBox="0 0 375 374.999991" height="500" preserveAspectRatio="xMidYMid meet" version="1.0"><defs><clipPath id="05d21cb49c"><path d="M 70 32.734375 L 304 32.734375 L 304 266 L 70 266 Z M 70 32.734375 " clip-rule="nonzero"/></clipPath><clipPath id="dbe30fc1da"><path d="M 289 271 L 359.816406 271 L 359.816406 342 L 289 342 Z M 289 271 " clip-rule="nonzero"/></clipPath><clipPath id="74f66dd20c"><path d="M 14.816406 180 L 107 180 L 107 253 L 14.816406 253 Z M 14.816406 180 " clip-rule="nonzero"/></clipPath></defs><g clip-path="url(#05d21cb49c)"><path fill="#552c89" d="M 264.328125 235.902344 C 266.273438 234.207031 267.945312 232.632812 269.5 231.054688 C 272.300781 228.214844 274.890625 225.316406 277.1875 222.476562 C 285.921875 211.757812 292.457031 199.96875 296.816406 187.632812 C 298.140625 183.898438 299.265625 180.105469 300.179688 176.289062 C 300.257812 175.941406 300.355469 175.609375 300.433594 175.277344 C 301.25 171.738281 301.914062 168.160156 302.378906 164.578125 C 304.871094 146.292969 302.945312 127.613281 296.699219 110.144531 C 295.257812 106.117188 293.585938 102.148438 291.699219 98.277344 C 286.097656 86.777344 278.46875 76 268.878906 66.488281 L 268.859375 66.488281 C 246.953125 44.699219 217.867188 32.734375 186.972656 32.734375 L 186.507812 32.734375 C 155.4375 32.851562 126.253906 45.046875 104.367188 67.128906 C 95.164062 76.390625 87.851562 86.835938 82.421875 97.964844 C 80.515625 101.835938 78.84375 105.785156 77.421875 109.8125 C 71.160156 127.304688 69.234375 146 71.585938 164.230469 C 72.054688 167.828125 72.695312 171.425781 73.511719 174.96875 C 73.570312 175.296875 73.648438 175.628906 73.746094 175.960938 C 74.621094 179.792969 75.730469 183.585938 77.035156 187.320312 C 82.636719 203.546875 91.9375 218.761719 104.914062 231.640625 C 109.191406 235.84375 113.765625 239.734375 118.511719 243.175781 C 118.726562 243.332031 118.941406 243.488281 119.152344 243.644531 C 119.855469 244.148438 120.535156 244.636719 121.234375 245.082031 C 124.386719 247.242188 127.597656 249.226562 130.886719 251.035156 C 165.769531 270.296875 207.769531 270.375 242.671875 251.191406 C 245.359375 249.734375 248.003906 248.136719 250.609375 246.425781 C 250.628906 246.425781 250.628906 246.40625 250.648438 246.40625 L 251.3125 245.996094 C 251.679688 245.765625 252.070312 245.53125 252.417969 245.277344 C 253.199219 244.734375 253.839844 244.285156 254.460938 243.859375 C 254.714844 243.664062 254.96875 243.46875 255.222656 243.292969 C 257.207031 241.835938 259.152344 240.355469 261.039062 238.800781 C 261.972656 238.019531 262.886719 237.261719 263.742188 236.40625 C 263.9375 236.230469 264.132812 236.074219 264.328125 235.902344 Z M 261.933594 225.355469 C 261.796875 225.492188 261.601562 225.648438 261.40625 225.824219 C 260.183594 227.027344 258.9375 228.195312 257.671875 229.285156 C 256.953125 229.945312 256.214844 230.570312 255.472656 231.171875 C 252.167969 233.933594 248.683594 236.503906 245.105469 238.820312 L 245.085938 238.820312 C 244.152344 239.421875 243.21875 240.003906 242.285156 240.589844 L 242.265625 240.589844 C 239.597656 242.261719 236.699219 243.859375 233.722656 245.277344 L 233.625 245.335938 C 233.625 245.335938 233.507812 245.394531 233.453125 245.433594 C 232.050781 246.113281 230.609375 246.796875 229.113281 247.359375 C 228.101562 247.808594 227.089844 248.234375 226.058594 248.644531 C 225.027344 249.050781 223.996094 249.460938 222.945312 249.832031 C 216.640625 252.125 209.96875 253.820312 203.082031 254.832031 C 202.421875 254.925781 201.738281 255.023438 201.078125 255.101562 C 200.417969 255.199219 199.734375 255.277344 199.074219 255.355469 C 196.253906 255.707031 193.570312 255.898438 190.980469 255.976562 C 190.496094 255.996094 189.988281 256.015625 189.503906 256.015625 L 189.464844 256.015625 C 189.210938 256.035156 188.917969 256.035156 188.628906 256.035156 L 187.695312 256.035156 C 187.480469 256.035156 187.265625 256.035156 187.03125 256.035156 C 186.234375 256.035156 185.417969 256.035156 184.601562 255.996094 C 184.132812 255.996094 183.667969 255.976562 183.199219 255.957031 C 181.816406 255.917969 180.476562 255.824219 179.132812 255.726562 C 176.914062 255.550781 174.890625 255.355469 172.925781 255.101562 C 172.226562 255.003906 171.507812 254.90625 170.804688 254.8125 L 165.652344 253.875 C 164.796875 253.722656 163.917969 253.546875 163.042969 253.351562 C 161.390625 252.980469 159.71875 252.554688 158.023438 252.046875 C 157.148438 251.816406 156.273438 251.542969 155.398438 251.25 C 155.027344 251.152344 154.523438 250.996094 153.976562 250.785156 C 152.695312 250.433594 151.449219 249.984375 150.164062 249.5 C 150.085938 249.460938 149.988281 249.441406 149.910156 249.402344 C 149.796875 249.363281 149.660156 249.304688 149.542969 249.265625 C 148.21875 248.820312 146.703125 248.214844 145.164062 247.535156 L 144.875 247.417969 C 144.738281 247.359375 144.601562 247.300781 144.484375 247.242188 C 143.492188 246.835938 142.480469 246.40625 141.488281 245.898438 L 141.46875 245.898438 L 140.691406 245.53125 L 140.417969 245.414062 C 140.417969 245.414062 140.242188 245.335938 140.164062 245.296875 C 140.007812 245.21875 139.855469 245.140625 139.71875 245.0625 C 139.328125 244.886719 138.957031 244.695312 138.609375 244.519531 C 138.433594 244.421875 138.277344 244.34375 138.101562 244.265625 C 137.734375 244.050781 137.34375 243.859375 136.972656 243.644531 C 136.953125 243.644531 136.9375 243.644531 136.9375 243.625 C 136.566406 243.429688 136.214844 243.234375 135.867188 243.039062 C 135.203125 242.691406 134.484375 242.300781 133.765625 241.894531 C 133.394531 241.679688 133.023438 241.464844 132.65625 241.230469 C 132.285156 241.015625 131.917969 240.804688 131.566406 240.570312 C 131.429688 240.492188 131.273438 240.394531 131.117188 240.296875 C 130.300781 239.832031 129.40625 239.265625 128.511719 238.683594 C 128.160156 238.429688 127.832031 238.195312 127.480469 237.941406 C 127.441406 237.921875 127.402344 237.886719 127.363281 237.867188 C 125.945312 236.949219 124.523438 235.957031 123.0625 234.890625 C 121.605469 233.800781 120.105469 232.632812 118.609375 231.386719 L 118.589844 231.386719 C 116.410156 229.578125 114.386719 227.730469 112.402344 225.765625 C 112.324219 225.707031 112.246094 225.628906 112.167969 225.570312 C 112.128906 225.53125 112.089844 225.511719 112.070312 225.492188 L 111.839844 225.238281 L 111.683594 225.101562 L 111.410156 224.832031 C 110.867188 224.285156 110.320312 223.742188 109.816406 223.195312 C 99.40625 212.417969 91.742188 199.96875 86.800781 186.71875 C 85.457031 183.140625 84.308594 179.519531 83.394531 175.863281 C 83.316406 175.648438 83.277344 175.433594 83.21875 175.222656 C 82.285156 171.464844 81.546875 167.671875 81.023438 163.859375 C 79.855469 155.472656 79.699219 146.972656 80.535156 138.546875 C 80.886719 135.007812 81.410156 131.503906 82.113281 128.003906 C 82.558594 125.707031 83.085938 123.414062 83.707031 121.136719 C 84.117188 119.519531 84.601562 117.886719 85.109375 116.292969 C 85.710938 114.40625 86.371094 112.519531 87.09375 110.667969 C 87.304688 110.085938 87.539062 109.503906 87.773438 108.917969 C 88.414062 107.34375 89.097656 105.765625 89.796875 104.210938 C 90.496094 102.691406 91.234375 101.195312 92.015625 99.695312 C 92.617188 98.511719 93.257812 97.34375 93.921875 96.175781 C 94.171875 95.746094 94.40625 95.320312 94.660156 94.890625 C 99.078125 87.34375 104.523438 80.203125 110.964844 73.707031 C 111.390625 73.277344 111.800781 72.867188 112.207031 72.480469 C 112.421875 72.265625 112.65625 72.050781 112.890625 71.835938 C 112.910156 71.835938 112.929688 71.816406 112.949219 71.796875 C 113.746094 70.980469 114.796875 70.007812 115.828125 69.09375 C 117.402344 67.695312 119 66.351562 120.632812 65.066406 C 122.265625 63.761719 123.941406 62.539062 125.632812 61.351562 C 126.992188 60.398438 128.375 59.464844 129.796875 58.589844 C 131.878906 57.265625 134.015625 56.019531 136.175781 54.871094 C 137.460938 54.132812 138.902344 53.433594 140.320312 52.753906 C 141.898438 51.972656 143.414062 51.253906 144.949219 50.652344 L 144.96875 50.652344 C 144.96875 50.652344 145.144531 50.574219 145.242188 50.535156 C 145.613281 50.359375 145.980469 50.183594 146.371094 50.046875 C 146.703125 49.910156 147.050781 49.777344 147.402344 49.640625 C 147.519531 49.601562 147.65625 49.542969 147.773438 49.503906 C 149.074219 48.976562 150.222656 48.570312 151.332031 48.160156 L 152.167969 47.867188 C 153.648438 47.363281 155.046875 46.914062 156.371094 46.546875 C 157.8125 46.097656 159.425781 45.652344 161.019531 45.300781 C 161.78125 45.066406 162.945312 44.777344 164.171875 44.5625 C 164.425781 44.503906 164.679688 44.425781 164.949219 44.367188 C 165.222656 44.308594 165.515625 44.25 165.808594 44.171875 C 165.824219 44.191406 165.824219 44.171875 165.84375 44.171875 C 166.136719 44.113281 166.449219 44.054688 166.78125 43.996094 L 166.816406 43.996094 C 167.148438 43.9375 167.480469 43.878906 167.828125 43.824219 C 169.230469 43.550781 170.496094 43.316406 171.761719 43.179688 C 172.847656 43.023438 174.308594 42.8125 175.691406 42.753906 C 191.816406 40.960938 207.925781 42.90625 222.886719 48.238281 C 226.117188 49.40625 229.289062 50.710938 232.402344 52.1875 C 243.316406 57.304688 253.429688 64.328125 262.246094 73.082031 L 262.265625 73.082031 C 262.90625 73.707031 263.527344 74.347656 264.132812 74.988281 C 264.773438 75.671875 265.433594 76.371094 266.078125 77.070312 C 266.992188 78.082031 267.90625 79.132812 268.78125 80.164062 C 269.65625 81.214844 270.511719 82.265625 271.347656 83.335938 C 272.457031 84.753906 273.527344 86.214844 274.558594 87.671875 C 277.359375 91.605469 279.851562 95.707031 282.050781 99.96875 C 283.878906 103.53125 285.511719 107.1875 286.933594 110.941406 C 291.464844 122.828125 293.839844 135.550781 293.898438 148.644531 C 293.917969 153.898438 293.566406 159.09375 292.828125 164.191406 C 292.300781 168.023438 291.542969 171.816406 290.589844 175.53125 C 290.550781 175.746094 290.492188 175.960938 290.433594 176.175781 C 289.480469 179.851562 288.332031 183.46875 286.992188 187.011719 L 286.972656 187.011719 C 285.183594 191.777344 283.042969 196.367188 280.570312 200.804688 C 279.753906 202.300781 278.878906 203.761719 277.984375 205.21875 C 277.476562 206.058594 276.953125 206.894531 276.40625 207.710938 C 275.921875 208.449219 275.414062 209.1875 274.910156 209.910156 C 274.402344 210.648438 273.898438 211.367188 273.371094 212.085938 C 273.296875 212.203125 273.199219 212.300781 273.140625 212.417969 C 272.320312 213.507812 271.503906 214.578125 270.667969 215.628906 C 270.414062 215.941406 270.164062 216.25 269.910156 216.5625 C 267.710938 219.265625 265.335938 221.914062 262.828125 224.441406 L 261.933594 225.335938 Z M 261.933594 225.355469 " fill-opacity="1" fill-rule="nonzero"/></g><g clip-path="url(#dbe30fc1da)"><path fill="#552c89" d="M 357.613281 325.394531 L 305.472656 273.644531 C 304.285156 272.476562 302.730469 271.832031 301.058594 271.832031 C 300.84375 271.8125 300.628906 271.8125 300.433594 271.832031 C 298.839844 271.890625 297.652344 272.613281 296.601562 273.664062 L 291.117188 279.1875 C 290.066406 280.238281 289.441406 281.601562 289.324219 283.078125 C 289.285156 283.253906 289.285156 283.449219 289.285156 283.644531 C 289.304688 285.316406 289.949219 286.871094 291.15625 288.058594 L 343.292969 339.808594 C 345.746094 342.242188 349.734375 342.222656 352.164062 339.769531 L 357.652344 334.246094 C 360.082031 331.792969 360.0625 327.804688 357.613281 325.375 Z M 357.613281 325.394531 " fill-opacity="1" fill-rule="nonzero"/></g><path fill="#552c89" d="M 283.042969 263.992188 L 267.828125 248.875 L 267.671875 248.722656 C 267.671875 248.722656 267.613281 248.78125 267.59375 248.800781 C 267.070312 249.226562 266.542969 249.636719 266.039062 250.023438 C 265.085938 250.785156 264.132812 251.503906 263.199219 252.203125 L 273.585938 262.535156 L 282.320312 271.210938 L 283.390625 272.28125 L 287.359375 268.253906 L 286.289062 267.203125 L 283.0625 263.992188 Z M 283.042969 263.992188 " fill-opacity="1" fill-rule="nonzero"/><path fill="#552c89" d="M 297.089844 252.710938 C 298.605469 252.691406 300.160156 252.59375 301.757812 252.457031 C 304.207031 252.28125 306.601562 252.027344 308.996094 251.660156 C 317.144531 250.453125 324.910156 248.214844 332.105469 245.023438 C 333.292969 244.519531 334.324219 244.03125 335.375 243.546875 L 336.25 243.15625 C 338.683594 241.929688 341.269531 240.511719 343.820312 238.992188 C 347.886719 236.542969 351.835938 233.722656 355.570312 230.609375 C 356.71875 229.675781 357.828125 228.683594 358.914062 227.671875 C 356.210938 215.414062 350.140625 204.304688 341.191406 195.355469 C 334.792969 188.957031 327.066406 183.898438 318.703125 180.589844 C 316.058594 182.320312 313.214844 183.742188 310.21875 184.851562 C 305.550781 200.863281 297.632812 216.230469 286.425781 229.964844 C 283.917969 233.078125 281.078125 236.269531 277.964844 239.421875 C 277.515625 239.890625 277.050781 240.335938 276.582031 240.785156 L 288.390625 252.535156 C 289.832031 252.632812 291.097656 252.691406 292.359375 252.710938 Z M 297.089844 252.710938 " fill-opacity="1" fill-rule="nonzero"/><path fill="#552c89" d="M 272.246094 191.058594 C 273.46875 188.546875 274.578125 186 275.570312 183.429688 C 273.78125 182.613281 272.089844 181.660156 270.453125 180.589844 C 263.800781 183.195312 257.710938 186.835938 252.363281 191.289062 C 255.921875 196.796875 258.742188 202.730469 260.785156 208.957031 C 260.804688 208.917969 260.824219 208.898438 260.84375 208.878906 C 261.367188 208.253906 261.855469 207.613281 262.324219 206.992188 C 262.828125 206.367188 263.296875 205.726562 263.761719 205.082031 C 264.230469 204.441406 264.675781 203.800781 265.125 203.15625 C 265.804688 202.183594 266.445312 201.210938 267.089844 200.21875 C 268.351562 198.234375 269.519531 196.210938 270.648438 194.167969 C 271.195312 193.136719 271.71875 192.109375 272.246094 191.058594 Z M 272.246094 191.058594 " fill-opacity="1" fill-rule="nonzero"/><path fill="#552c89" d="M 314.128906 166.640625 C 313.996094 167.652344 313.859375 168.664062 313.683594 169.65625 C 314.695312 168.9375 315.667969 168.160156 316.582031 167.320312 C 323.253906 161.308594 327.457031 152.613281 327.457031 142.945312 C 327.457031 130.589844 320.609375 119.792969 310.492188 114.171875 C 313.722656 125.550781 315.355469 137.304688 315.355469 149.074219 C 315.355469 154.949219 314.949219 160.804688 314.128906 166.640625 Z M 314.128906 166.640625 " fill-opacity="1" fill-rule="nonzero"/><path fill="#552c89" d="M 279.171875 171.972656 C 279.714844 169.8125 280.164062 167.632812 280.53125 165.433594 C 283.410156 148.898438 281.894531 131.738281 276 115.84375 C 267.378906 121.777344 261.71875 131.699219 261.71875 142.945312 C 261.71875 152.59375 265.902344 161.289062 272.554688 167.320312 C 274.558594 169.113281 276.777344 170.6875 279.171875 171.972656 Z M 279.171875 171.972656 " fill-opacity="1" fill-rule="nonzero"/><path fill="#552c89" d="M 186.914062 167.207031 C 195.378906 167.207031 203.101562 163.976562 208.917969 158.722656 C 215.570312 152.710938 219.773438 144.015625 219.773438 134.347656 C 219.773438 116.214844 205.027344 101.46875 186.914062 101.46875 C 168.800781 101.46875 154.035156 116.214844 154.035156 134.347656 C 154.035156 143.996094 158.21875 152.691406 164.890625 158.722656 C 170.730469 163.976562 178.453125 167.207031 186.914062 167.207031 Z M 186.914062 167.207031 " fill-opacity="1" fill-rule="nonzero"/><path fill="#552c89" d="M 236.5625 190.027344 C 235.589844 188.898438 234.558594 187.808594 233.507812 186.757812 C 227.109375 180.355469 219.386719 175.296875 211.019531 172.011719 C 204.054688 176.523438 195.785156 179.113281 186.914062 179.113281 C 178.042969 179.113281 169.757812 176.503906 162.792969 172.011719 C 152.832031 175.902344 144.152344 182.070312 137.34375 189.851562 C 134.640625 192.90625 132.246094 196.210938 130.164062 199.734375 C 126.664062 205.648438 124.074219 212.125 122.539062 219.011719 C 123.296875 219.753906 124.074219 220.433594 124.855469 221.113281 C 125.28125 221.484375 125.730469 221.855469 126.175781 222.222656 C 126.839844 222.769531 127.5 223.292969 128.160156 223.839844 C 130.144531 225.375 132.089844 226.777344 134.074219 228.078125 L 134.09375 228.078125 C 135.28125 228.898438 136.371094 229.597656 137.460938 230.257812 C 137.539062 230.296875 137.597656 230.335938 137.675781 230.375 C 138.179688 230.6875 138.648438 230.976562 139.09375 231.230469 C 139.113281 231.230469 139.132812 231.269531 139.152344 231.269531 C 139.660156 231.582031 140.144531 231.855469 140.632812 232.105469 C 140.941406 232.28125 141.234375 232.4375 141.546875 232.59375 C 142.984375 233.410156 144.210938 234.050781 145.476562 234.65625 L 146.46875 235.121094 C 147.421875 235.570312 148.355469 235.996094 149.328125 236.40625 C 149.347656 236.40625 149.367188 236.425781 149.386719 236.425781 L 150.242188 236.777344 C 150.398438 236.835938 150.574219 236.914062 150.730469 236.96875 C 151.742188 237.398438 152.753906 237.808594 153.804688 238.175781 C 153.84375 238.195312 153.878906 238.195312 153.917969 238.214844 C 155.085938 238.664062 156.292969 239.050781 157.480469 239.441406 C 157.558594 239.460938 157.617188 239.480469 157.695312 239.5 C 157.792969 239.539062 157.90625 239.578125 158.023438 239.617188 C 158.140625 239.65625 158.257812 239.695312 158.355469 239.734375 C 158.414062 239.734375 158.996094 239.925781 159.074219 239.945312 C 160.359375 240.375 161.625 240.746094 162.867188 241.074219 C 164.542969 241.523438 166.175781 241.910156 167.753906 242.203125 L 167.886719 242.203125 C 167.886719 242.203125 172.734375 243.078125 172.734375 243.078125 C 173.179688 243.15625 173.628906 243.214844 174.074219 243.273438 C 174.25 243.292969 174.425781 243.332031 174.601562 243.351562 C 175.457031 243.46875 176.3125 243.566406 177.1875 243.644531 C 178.492188 243.78125 179.753906 243.894531 180.980469 243.953125 C 181.410156 243.972656 181.816406 244.011719 182.246094 244.03125 C 182.65625 244.050781 183.082031 244.089844 183.492188 244.089844 C 183.878906 244.109375 184.269531 244.128906 184.660156 244.128906 L 184.679688 244.128906 C 186.078125 244.1875 187.421875 244.1875 188.722656 244.128906 L 189.40625 244.128906 C 189.753906 244.128906 190.105469 244.128906 190.457031 244.089844 L 190.632812 244.089844 C 190.921875 244.089844 191.214844 244.070312 191.527344 244.03125 C 192.363281 243.992188 193.199219 243.933594 194.054688 243.878906 C 195.882812 243.742188 197.691406 243.546875 199.503906 243.3125 C 200.085938 243.234375 200.6875 243.15625 201.292969 243.058594 C 208.878906 241.929688 216.117188 239.925781 222.886719 237.066406 C 223.394531 236.875 223.898438 236.640625 224.40625 236.425781 C 225.550781 235.9375 226.542969 235.472656 227.554688 235.003906 L 228.394531 234.636719 L 228.546875 234.558594 C 230.476562 233.585938 232.496094 232.515625 234.5 231.347656 C 235.046875 231.035156 235.570312 230.726562 236.117188 230.394531 C 236.933594 229.910156 237.730469 229.402344 238.546875 228.878906 C 241.757812 226.816406 244.871094 224.5 247.867188 222.007812 C 248.394531 221.582031 248.917969 221.132812 249.441406 220.6875 C 249.675781 220.472656 249.910156 220.277344 250.144531 220.0625 C 250.320312 219.929688 250.472656 219.773438 250.628906 219.636719 C 250.84375 219.441406 251.039062 219.265625 251.234375 219.070312 C 249.734375 212.28125 247.207031 205.863281 243.703125 199.949219 C 241.640625 196.445312 239.25 193.117188 236.542969 190.027344 Z M 236.5625 190.027344 " fill-opacity="1" fill-rule="nonzero"/><path fill="#552c89" d="M 98.199219 183.175781 C 100.089844 188.140625 102.402344 192.945312 105.144531 197.59375 C 106.351562 199.617188 107.636719 201.621094 109 203.566406 C 109.464844 204.226562 109.933594 204.871094 110.398438 205.511719 C 111.234375 206.640625 112.089844 207.769531 113.007812 208.859375 C 115.085938 202.535156 117.96875 196.5625 121.527344 191.058594 C 116.097656 186.523438 109.953125 182.847656 103.414062 180.277344 C 101.761719 181.367188 100.011719 182.339844 98.199219 183.175781 Z M 98.199219 183.175781 " fill-opacity="1" fill-rule="nonzero"/><path fill="#552c89" d="M 112.148438 142.613281 C 112.148438 131.425781 106.527344 121.523438 97.96875 115.589844 L 97.949219 115.589844 C 97.675781 116.3125 97.421875 117.011719 97.1875 117.730469 C 96.976562 118.375 96.761719 118.996094 96.546875 119.636719 C 96.136719 120.902344 95.769531 122.1875 95.398438 123.46875 C 95.050781 124.753906 94.71875 126.058594 94.40625 127.34375 C 93.648438 130.589844 93.066406 133.878906 92.65625 137.1875 C 92.5 138.488281 92.363281 139.773438 92.246094 141.078125 L 92.246094 141.136719 C 92.132812 142.4375 92.054688 143.742188 91.996094 145.046875 C 91.820312 149.328125 91.917969 153.625 92.324219 157.886719 C 92.34375 158.179688 92.363281 158.449219 92.402344 158.722656 C 92.617188 160.84375 92.910156 162.984375 93.257812 165.105469 C 93.511719 166.582031 93.804688 168.082031 94.117188 169.558594 C 94.117188 169.578125 94.117188 169.597656 94.136719 169.597656 C 94.191406 169.949219 94.269531 170.296875 94.367188 170.628906 C 94.445312 170.980469 94.523438 171.328125 94.621094 171.679688 C 97.035156 170.394531 99.289062 168.820312 101.292969 166.992188 C 107.96875 160.980469 112.148438 152.285156 112.148438 142.613281 Z M 112.148438 142.613281 " fill-opacity="1" fill-rule="nonzero"/><path fill="#552c89" d="M 60.339844 169.441406 C 60.167969 168.390625 60.011719 167.339844 59.875 166.289062 C 57.519531 148.761719 58.804688 130.804688 63.6875 113.683594 C 53.433594 119.269531 46.429688 130.144531 46.429688 142.613281 C 46.429688 152.285156 50.613281 160.960938 57.269531 166.992188 C 58.242188 167.867188 59.273438 168.683594 60.339844 169.441406 Z M 60.339844 169.441406 " fill-opacity="1" fill-rule="nonzero"/><g clip-path="url(#74f66dd20c)"><path fill="#552c89" d="M 63.707031 184.578125 C 60.691406 183.449219 57.832031 182.011719 55.167969 180.277344 C 34.699219 188.292969 19.621094 205.941406 14.933594 227.300781 C 16.101562 228.410156 17.308594 229.480469 18.550781 230.511719 C 21.238281 232.710938 23.824219 234.617188 26.46875 236.347656 C 27.753906 237.261719 28.882812 237.980469 30.070312 238.664062 C 31.488281 239.558594 32.714844 240.238281 33.941406 240.882812 C 35.363281 241.679688 36.605469 242.339844 37.851562 242.921875 L 38.746094 243.332031 C 39.777344 243.820312 40.769531 244.285156 41.800781 244.714844 L 42.695312 245.082031 C 43.902344 245.570312 45.070312 246.054688 46.335938 246.503906 C 47.578125 246.949219 48.84375 247.398438 50.109375 247.789062 C 50.324219 247.847656 50.515625 247.921875 50.730469 248 C 50.808594 248 51.390625 248.214844 51.46875 248.234375 C 54.425781 249.207031 57.34375 249.945312 60.167969 250.472656 L 65.128906 251.367188 C 67.34375 251.699219 69.71875 251.949219 72.09375 252.125 C 73.960938 252.261719 75.496094 252.378906 77.074219 252.398438 L 81.800781 252.398438 C 83.316406 252.398438 84.894531 252.261719 86.449219 252.144531 C 88.921875 251.949219 91.292969 251.699219 93.707031 251.328125 C 97.949219 250.707031 102.09375 249.792969 106.082031 248.625 C 102.792969 245.957031 99.601562 243.097656 96.546875 240.082031 C 80.476562 224.128906 69.523438 204.949219 63.707031 184.578125 Z M 63.707031 184.578125 " fill-opacity="1" fill-rule="nonzero"/></g></svg>