<svg xmlns="http://www.w3.org/2000/svg" xmlns:xlink="http://www.w3.org/1999/xlink" width="500" zoomAndPan="magnify" viewBox="0 0 375 374.999991" height="500" preserveAspectRatio="xMidYMid meet" version="1.0"><defs><g/><clipPath id="93be4740b8"><path d="M 25 112.097656 L 150 112.097656 L 150 197 L 25 197 Z M 25 112.097656 " clip-rule="nonzero"/></clipPath><clipPath id="60b743dcd4"><path d="M 18 149 L 174.027344 149 L 174.027344 211 L 18 211 Z M 18 149 " clip-rule="nonzero"/></clipPath><clipPath id="8cc997b978"><path d="M 16 180 L 153 180 L 153 238.808594 L 16 238.808594 Z M 16 180 " clip-rule="nonzero"/></clipPath><clipPath id="eb2b202dea"><path d="M 120 205 L 170 205 L 170 252 L 120 252 Z M 120 205 " clip-rule="nonzero"/></clipPath><clipPath id="5eb4dec8fc"><path d="M 120.652344 226.835938 L 137.183594 205.320312 L 169.671875 230.285156 L 153.144531 251.800781 Z M 120.652344 226.835938 " clip-rule="nonzero"/></clipPath></defs><g clip-path="url(#93be4740b8)"><path fill="#af88d1" d="M 141.171875 162.78125 C 136.011719 142.292969 119.640625 126.570312 98.632812 122.804688 C 71.199219 117.867188 44.0625 134.996094 37.195312 162.261719 C 34.300781 173.734375 35.136719 185.109375 39.683594 196.359375 C 39.703125 196.375 39.703125 196.394531 39.703125 196.414062 C 39.703125 196.507812 39.628906 196.582031 39.554688 196.582031 C 39.535156 196.582031 39.535156 196.582031 39.515625 196.582031 C 35.339844 195.820312 28.027344 192.792969 27.082031 188.042969 C 19.582031 150.289062 46.960938 114.617188 85.269531 112.351562 C 114.632812 110.628906 140.855469 129.019531 149.5625 156.769531 C 149.582031 156.84375 149.597656 156.917969 149.597656 156.992188 C 149.597656 157.230469 149.488281 157.4375 149.300781 157.566406 L 141.65625 162.96875 C 141.597656 163.003906 141.542969 163.023438 141.488281 163.023438 C 141.339844 163.023438 141.210938 162.929688 141.171875 162.78125 Z M 141.171875 162.78125 " fill-opacity="1" fill-rule="evenodd"/></g><path fill="#552c89" d="M 87.71875 153.796875 C 86.214844 152.371094 85.304688 148.695312 86.605469 147.171875 C 86.714844 147.042969 86.773438 146.875 86.734375 146.691406 C 86.140625 143.183594 86.566406 139.007812 90.316406 137.78125 C 91.652344 137.335938 93.359375 137.484375 94.996094 137.390625 C 96.886719 137.296875 98.445312 137.984375 99.671875 139.378906 C 101.269531 141.195312 101.210938 144.613281 101.027344 146.929688 C 101.027344 147.117188 101.082031 147.285156 101.210938 147.394531 C 101.453125 147.617188 101.601562 147.824219 101.65625 148.046875 C 102.195312 149.992188 101.863281 151.703125 100.691406 153.148438 C 100.582031 153.296875 100.507812 153.464844 100.488281 153.648438 C 100.375 155.136719 99.800781 156.414062 98.742188 157.472656 C 98.632812 157.605469 98.578125 157.789062 98.632812 157.957031 C 98.890625 158.71875 98.855469 159.347656 98.503906 159.832031 C 97.59375 161.128906 96.238281 162.410156 94.457031 163.691406 C 94.398438 163.746094 94.324219 163.765625 94.234375 163.765625 C 94.140625 163.765625 94.046875 163.730469 93.992188 163.671875 L 89.277344 159.292969 C 89.128906 159.164062 89.054688 158.976562 89.054688 158.773438 L 89.09375 158.179688 C 89.09375 157.9375 89.035156 157.734375 88.886719 157.546875 C 88.164062 156.488281 87.8125 155.320312 87.8125 154.019531 C 87.828125 153.929688 87.792969 153.855469 87.738281 153.796875 Z M 87.71875 153.796875 " fill-opacity="1" fill-rule="evenodd"/><path fill="#552c89" d="M 91.949219 184.832031 C 91.933594 179.28125 92.414062 173.789062 93.398438 168.332031 C 93.417969 168.164062 93.378906 168.015625 93.269531 167.90625 L 91.96875 166.585938 C 91.785156 166.402344 91.800781 166.214844 92.007812 166.046875 L 94.085938 164.472656 C 94.289062 164.324219 94.472656 164.324219 94.660156 164.453125 L 96.738281 165.917969 C 96.851562 166.011719 96.90625 166.140625 96.90625 166.269531 C 96.90625 166.363281 96.867188 166.476562 96.8125 166.550781 L 95.625 167.886719 C 95.550781 167.996094 95.515625 168.109375 95.53125 168.257812 C 96.496094 172.898438 96.980469 177.613281 96.980469 182.363281 C 96.960938 182.363281 96.960938 182.363281 96.960938 182.363281 C 96.960938 182.398438 97 182.4375 97.035156 182.4375 C 97.074219 182.4375 97.109375 182.417969 97.109375 182.382812 C 98.09375 177.464844 98.890625 172.507812 99.503906 167.496094 C 99.839844 164.898438 99.839844 162.335938 99.503906 159.792969 C 99.503906 159.792969 99.503906 159.792969 99.503906 159.773438 C 99.503906 159.664062 99.597656 159.589844 99.707031 159.589844 C 99.746094 159.589844 99.78125 159.609375 99.820312 159.625 C 101.25 160.722656 102.289062 162.003906 103.976562 162.652344 C 105.238281 163.132812 106.519531 163.597656 107.820312 164.007812 C 107.839844 164.007812 107.875 164.007812 107.894531 164.007812 C 108.023438 164.007812 108.117188 163.914062 108.117188 163.785156 C 108.003906 158.847656 111.976562 158.941406 115.410156 157.863281 C 115.464844 157.84375 115.503906 157.828125 115.539062 157.789062 C 115.746094 157.640625 115.78125 157.363281 115.632812 157.15625 C 115.597656 157.121094 115.558594 157.082031 115.523438 157.046875 C 113.035156 155.394531 113.589844 153.054688 114.648438 150.511719 C 116.097656 147.042969 117.601562 142.160156 121.164062 141.214844 C 127.457031 139.527344 129.496094 147.414062 131.222656 151.554688 C 132.207031 153.890625 131.726562 155.804688 129.796875 157.269531 C 129.722656 157.308594 129.683594 157.398438 129.683594 157.472656 C 129.683594 157.585938 129.757812 157.695312 129.851562 157.734375 C 134.566406 159.683594 137.8125 158.308594 137.570312 165.363281 C 137.570312 165.546875 137.496094 165.675781 137.347656 165.769531 C 115.207031 180.265625 89.667969 192.199219 63.441406 196.617188 C 56.460938 197.804688 49.445312 197.992188 42.414062 197.210938 C 42.226562 197.191406 42.078125 197.082031 42.023438 196.914062 C 38.886719 188.933594 40.480469 181.527344 42.875 173.511719 C 44.027344 169.703125 47.683594 169.890625 50.894531 168.871094 C 51.117188 168.796875 51.246094 168.609375 51.246094 168.386719 C 51.246094 168.203125 51.171875 168.054688 51.023438 167.960938 C 48.074219 166.011719 48.851562 163.265625 50.113281 160.292969 C 51.007812 158.234375 51.898438 156.191406 52.824219 154.152344 C 54.664062 150.066406 59.710938 148.027344 63.386719 151.144531 C 65.410156 152.871094 66.671875 156.472656 67.765625 159.050781 C 69.34375 162.761719 70.773438 165.304688 67.300781 168.164062 C 67.136719 168.292969 67.136719 168.425781 67.300781 168.554688 C 67.953125 169.074219 68.636719 169.390625 69.398438 169.5 C 71.089844 169.742188 72.648438 170.1875 74.058594 170.835938 C 74.207031 170.910156 74.300781 170.875 74.335938 170.707031 C 74.96875 167.996094 74.929688 165.9375 77.9375 164.804688 C 79.757812 164.101562 81.59375 163.429688 83.449219 162.78125 C 85.34375 162.132812 86.417969 160.871094 87.941406 159.644531 C 87.976562 159.625 88.035156 159.609375 88.070312 159.609375 C 88.199219 159.609375 88.292969 159.699219 88.292969 159.8125 C 88.292969 159.8125 88.292969 159.832031 88.273438 159.832031 C 87.976562 162.949219 88.109375 166.085938 88.664062 169.257812 C 89.554688 174.476562 90.613281 179.671875 91.820312 184.851562 C 91.914062 185.257812 91.949219 185.238281 91.949219 184.832031 Z M 118.140625 163.894531 L 118.027344 164.359375 C 117.992188 164.546875 118.066406 164.636719 118.25 164.636719 C 119.160156 164.675781 119.828125 165.25 120.253906 166.382812 C 121.015625 168.292969 121.777344 170.167969 122.539062 172.023438 C 122.574219 172.097656 122.648438 172.15625 122.742188 172.15625 C 122.816406 172.15625 122.890625 172.097656 122.925781 172.023438 C 123.800781 169.890625 124.671875 167.738281 125.542969 165.566406 C 125.804688 164.917969 126.324219 164.65625 127.140625 164.785156 C 127.363281 164.824219 127.457031 164.730469 127.457031 164.507812 L 127.417969 163.894531 C 127.417969 163.636719 127.53125 163.523438 127.773438 163.5625 L 131.835938 164.15625 C 132.023438 164.175781 132.078125 164.101562 132.003906 163.933594 C 130.910156 161.445312 129.292969 159.347656 127.140625 157.679688 C 127.105469 157.640625 127.046875 157.621094 126.972656 157.621094 C 126.84375 157.621094 126.734375 157.714844 126.714844 157.828125 C 126.046875 161.128906 125.171875 164.101562 122.964844 166.714844 C 122.890625 166.792969 122.816406 166.828125 122.703125 166.828125 C 122.613281 166.828125 122.519531 166.792969 122.464844 166.714844 C 120.3125 164.0625 119.773438 160.980469 118.714844 157.789062 C 118.640625 157.566406 118.511719 157.53125 118.304688 157.679688 C 116.171875 159.347656 114.558594 161.425781 113.480469 163.914062 C 113.460938 163.933594 113.460938 163.953125 113.460938 163.96875 C 113.460938 164.0625 113.535156 164.136719 113.609375 164.136719 C 113.628906 164.136719 113.628906 164.136719 113.628906 164.136719 L 117.84375 163.582031 C 118.082031 163.542969 118.195312 163.636719 118.140625 163.894531 Z M 64.757812 175.347656 L 69.621094 175.996094 C 69.789062 176.015625 69.828125 175.941406 69.769531 175.792969 C 68.507812 172.933594 66.652344 170.539062 64.183594 168.609375 C 64.128906 168.574219 64.054688 168.535156 63.960938 168.535156 C 63.792969 168.535156 63.644531 168.683594 63.628906 168.851562 C 63.183594 172.601562 61.828125 175.976562 59.542969 178.949219 C 59.375 179.152344 59.191406 179.171875 59.003906 178.964844 C 56.667969 176.554688 55.535156 172.191406 54.8125 169 C 54.773438 168.796875 54.570312 168.648438 54.367188 168.648438 C 54.253906 168.648438 54.144531 168.683594 54.070312 168.738281 C 51.675781 170.652344 49.875 173.007812 48.648438 175.8125 C 48.574219 175.960938 48.628906 176.035156 48.796875 175.996094 L 53.679688 175.347656 C 53.996094 175.308594 54.105469 175.441406 54.011719 175.753906 L 53.828125 176.441406 C 53.773438 176.628906 53.847656 176.703125 54.03125 176.683594 C 55.109375 176.589844 55.867188 177.128906 56.3125 178.28125 C 57.167969 180.527344 58.058594 182.773438 59.003906 185.015625 C 59.042969 185.089844 59.136719 185.148438 59.226562 185.148438 C 59.320312 185.148438 59.394531 185.089844 59.433594 185.015625 C 60.34375 182.808594 61.234375 180.582031 62.125 178.296875 C 62.550781 177.148438 63.3125 176.609375 64.351562 176.648438 C 64.554688 176.664062 64.628906 176.574219 64.59375 176.367188 L 64.425781 175.738281 C 64.351562 175.441406 64.460938 175.308594 64.757812 175.347656 Z M 64.757812 175.347656 " fill-opacity="1" fill-rule="evenodd"/><g clip-path="url(#60b743dcd4)"><path fill="#af88d1" d="M 154.886719 156.84375 L 152.421875 154.394531 C 152.363281 154.335938 152.347656 154.261719 152.347656 154.1875 C 152.347656 154.058594 152.4375 153.945312 152.570312 153.929688 L 174.804688 149.472656 C 174.824219 149.472656 174.839844 149.472656 174.859375 149.472656 C 174.972656 149.472656 175.082031 149.566406 175.082031 149.679688 C 175.082031 149.714844 175.0625 149.734375 175.0625 149.753906 L 167.734375 171.320312 C 167.472656 172.042969 167.15625 172.082031 166.730469 171.449219 L 164.78125 168.515625 C 164.671875 168.351562 164.449219 168.3125 164.28125 168.425781 C 142.101562 183.644531 117.75 195.523438 92.304688 203.355469 C 80.945312 206.84375 68.136719 209.480469 57.039062 209.925781 C 46.847656 210.332031 34.097656 209.535156 25.746094 202.855469 C 15.332031 194.574219 17.78125 180.433594 23.554688 169.816406 C 23.554688 169.816406 23.574219 169.796875 23.574219 169.796875 C 23.628906 169.796875 23.667969 169.816406 23.703125 169.816406 C 23.742188 169.835938 23.757812 169.851562 23.742188 169.890625 C 15.054688 195.058594 35.359375 202.203125 55.386719 200.8125 C 65.222656 200.105469 75.710938 197.84375 86.863281 194 C 111.550781 185.5 134.210938 173.269531 154.851562 157.308594 C 155.039062 157.15625 155.054688 157.007812 154.886719 156.84375 Z M 154.886719 156.84375 " fill-opacity="1" fill-rule="evenodd"/></g><g clip-path="url(#8cc997b978)"><path fill="#552c89" d="M 95.921875 210.148438 C 81.40625 214.566406 66.523438 217.589844 51.304688 217.441406 C 36.808594 217.3125 18.542969 212.246094 16.242188 195.226562 C 16.148438 194.558594 16.222656 194.539062 16.484375 195.152344 C 20.976562 206.453125 31.035156 211.058594 42.414062 212.5625 C 50.859375 213.675781 59.96875 213.433594 69.714844 211.835938 C 98.578125 207.140625 126.714844 195.300781 151.566406 180.320312 C 152.125 179.988281 152.347656 180.136719 152.273438 180.765625 C 150.136719 199.699219 141.839844 214.734375 127.382812 225.867188 C 102.363281 245.152344 67.042969 242.441406 44.601562 220.503906 C 44.378906 220.261719 44.417969 220.171875 44.734375 220.171875 C 61.902344 220.746094 80.015625 216.367188 95.960938 210.257812 C 95.976562 210.242188 95.976562 210.222656 95.976562 210.203125 C 95.976562 210.167969 95.960938 210.148438 95.921875 210.148438 Z M 95.921875 210.148438 " fill-opacity="1" fill-rule="evenodd"/></g><g clip-path="url(#eb2b202dea)"><g clip-path="url(#5eb4dec8fc)"><path fill="#552c89" d="M 120.652344 226.835938 L 137.183594 205.320312 L 169.707031 230.308594 L 153.175781 251.824219 Z M 120.652344 226.835938 " fill-opacity="1" fill-rule="nonzero"/></g></g><g fill="#8e59b7" fill-opacity="1"><g transform="translate(204.83449, 153.499662)"><g><path d="M 10.53125 -25.890625 L 10.34375 -22.5625 L 10.34375 -22.125 C 10.34375 -21.425781 10.429688 -20.898438 10.609375 -20.546875 C 10.796875 -20.191406 11.066406 -20.015625 11.421875 -20.015625 C 11.847656 -20.015625 12.597656 -20.28125 13.671875 -20.8125 C 14.742188 -21.351562 15.910156 -22.0625 17.171875 -22.9375 C 18.703125 -24.03125 19.753906 -24.953125 20.328125 -25.703125 C 20.898438 -26.460938 21.1875 -27.28125 21.1875 -28.15625 C 21.1875 -29.34375 20.734375 -30.242188 19.828125 -30.859375 C 18.921875 -31.472656 17.597656 -31.78125 15.859375 -31.78125 C 14.015625 -31.78125 12.695312 -31.335938 11.90625 -30.453125 C 11.125 -29.578125 10.664062 -28.054688 10.53125 -25.890625 Z M 11.828125 0 L 5.390625 0 C 4.859375 0 4.492188 -0.0976562 4.296875 -0.296875 C 4.097656 -0.492188 3.972656 -0.898438 3.921875 -1.515625 C 3.734375 -4.128906 3.585938 -6.863281 3.484375 -9.71875 C 3.378906 -12.582031 3.328125 -15.457031 3.328125 -18.34375 C 3.328125 -22.507812 3.414062 -26.09375 3.59375 -29.09375 C 3.78125 -32.09375 4.050781 -34.425781 4.40625 -36.09375 C 4.519531 -36.613281 4.660156 -36.957031 4.828125 -37.125 C 5.003906 -37.300781 5.328125 -37.390625 5.796875 -37.390625 L 19.8125 -37.390625 C 22.519531 -37.390625 24.628906 -36.691406 26.140625 -35.296875 C 27.648438 -33.910156 28.40625 -31.988281 28.40625 -29.53125 C 28.40625 -28.3125 28.203125 -27.164062 27.796875 -26.09375 C 27.390625 -25.03125 26.722656 -23.898438 25.796875 -22.703125 C 25.054688 -21.742188 24.210938 -20.835938 23.265625 -19.984375 C 22.328125 -19.128906 21.859375 -18.628906 21.859375 -18.484375 C 21.859375 -18.234375 22.523438 -17.351562 23.859375 -15.84375 C 25.191406 -14.332031 26.316406 -12.75 27.234375 -11.09375 C 28.160156 -9.394531 28.890625 -7.585938 29.421875 -5.671875 C 29.953125 -3.753906 30.21875 -2.0625 30.21875 -0.59375 C 30.21875 -0.414062 30.070312 -0.269531 29.78125 -0.15625 C 29.5 -0.0507812 29.132812 0 28.6875 0 L 23.296875 0 C 22.609375 0 22.113281 -0.78125 21.8125 -2.34375 C 21.507812 -3.863281 21.179688 -5.222656 20.828125 -6.421875 C 20.078125 -9.035156 19.234375 -11.078125 18.296875 -12.546875 C 17.359375 -14.015625 16.441406 -14.75 15.546875 -14.75 C 14.597656 -14.75 13.640625 -14.289062 12.671875 -13.375 C 11.710938 -12.46875 11.234375 -11.441406 11.234375 -10.296875 C 11.234375 -8.679688 11.519531 -6.703125 12.09375 -4.359375 C 12.664062 -2.015625 12.953125 -0.707031 12.953125 -0.4375 C 12.953125 -0.269531 12.875 -0.15625 12.71875 -0.09375 C 12.570312 -0.03125 12.273438 0 11.828125 0 Z M 11.828125 0 "/></g></g></g><g fill="#8e59b7" fill-opacity="1"><g transform="translate(235.370239, 153.499662)"><g><path d="M 14.921875 -18.6875 C 15.554688 -18.90625 16.03125 -19.210938 16.34375 -19.609375 C 16.65625 -20.015625 16.8125 -20.507812 16.8125 -21.09375 C 16.8125 -21.945312 16.472656 -22.640625 15.796875 -23.171875 C 15.117188 -23.703125 14.234375 -23.96875 13.140625 -23.96875 C 11.609375 -23.96875 10.285156 -23.320312 9.171875 -22.03125 C 8.054688 -20.75 7.5 -19.304688 7.5 -17.703125 C 7.5 -17.378906 7.578125 -17.109375 7.734375 -16.890625 C 7.890625 -16.679688 8.070312 -16.578125 8.28125 -16.578125 C 8.425781 -16.578125 8.570312 -16.59375 8.71875 -16.625 C 8.863281 -16.65625 9.039062 -16.707031 9.25 -16.78125 Z M 1.671875 -13.765625 C 1.671875 -18.472656 2.738281 -22.210938 4.875 -24.984375 C 7.007812 -27.753906 9.878906 -29.140625 13.484375 -29.140625 C 16.085938 -29.140625 18.207031 -28.4375 19.84375 -27.03125 C 21.488281 -25.632812 22.3125 -23.832031 22.3125 -21.625 C 22.3125 -19.800781 21.8125 -18.265625 20.8125 -17.015625 C 19.820312 -15.773438 18.234375 -14.71875 16.046875 -13.84375 C 15.378906 -13.570312 14.445312 -13.226562 13.25 -12.8125 C 10.070312 -11.695312 8.484375 -10.484375 8.484375 -9.171875 C 8.484375 -8.234375 8.992188 -7.453125 10.015625 -6.828125 C 11.035156 -6.203125 12.34375 -5.890625 13.9375 -5.890625 C 14.988281 -5.890625 15.972656 -6.039062 16.890625 -6.34375 C 17.804688 -6.644531 18.601562 -7.078125 19.28125 -7.640625 C 20.425781 -8.628906 21.164062 -9.75 21.5 -11 C 21.570312 -11.21875 21.628906 -11.328125 21.671875 -11.328125 C 22.003906 -11.328125 22.257812 -11.050781 22.4375 -10.5 C 22.613281 -9.945312 22.703125 -9.160156 22.703125 -8.140625 C 22.703125 -5.503906 21.800781 -3.378906 20 -1.765625 C 18.207031 -0.160156 15.828125 0.640625 12.859375 0.640625 C 9.347656 0.640625 6.601562 -0.628906 4.625 -3.171875 C 2.65625 -5.722656 1.671875 -9.253906 1.671875 -13.765625 Z M 1.671875 -13.765625 "/></g></g></g><g fill="#8e59b7" fill-opacity="1"><g transform="translate(259.607258, 153.499662)"><g><path d="M 20.78125 -7.5 C 20.78125 -4.925781 20.007812 -2.925781 18.46875 -1.5 C 16.9375 -0.0703125 14.785156 0.640625 12.015625 0.640625 C 8.835938 0.640625 6.28125 -0.597656 4.34375 -3.078125 C 2.414062 -5.554688 1.453125 -8.878906 1.453125 -13.046875 C 1.453125 -17.828125 2.625 -21.703125 4.96875 -24.671875 C 7.3125 -27.648438 10.300781 -29.140625 13.9375 -29.140625 C 15.863281 -29.140625 17.445312 -28.648438 18.6875 -27.671875 C 19.925781 -26.703125 20.546875 -25.46875 20.546875 -23.96875 C 20.546875 -23.09375 20.242188 -22.296875 19.640625 -21.578125 C 19.046875 -20.859375 18.445312 -20.5 17.84375 -20.5 C 17.550781 -20.5 17.273438 -20.757812 17.015625 -21.28125 C 16.765625 -21.8125 16.535156 -22.207031 16.328125 -22.46875 C 15.960938 -22.914062 15.507812 -23.257812 14.96875 -23.5 C 14.4375 -23.75 13.894531 -23.875 13.34375 -23.875 C 11.695312 -23.875 10.300781 -22.96875 9.15625 -21.15625 C 8.019531 -19.34375 7.453125 -17.066406 7.453125 -14.328125 C 7.453125 -11.828125 8.015625 -9.867188 9.140625 -8.453125 C 10.273438 -7.035156 11.84375 -6.328125 13.84375 -6.328125 C 14.800781 -6.328125 15.660156 -6.476562 16.421875 -6.78125 C 17.191406 -7.082031 17.863281 -7.535156 18.4375 -8.140625 C 18.820312 -8.535156 19.132812 -8.992188 19.375 -9.515625 C 19.625 -10.035156 19.785156 -10.296875 19.859375 -10.296875 C 20.140625 -10.296875 20.363281 -10.046875 20.53125 -9.546875 C 20.695312 -9.046875 20.78125 -8.363281 20.78125 -7.5 Z M 20.78125 -7.5 "/></g></g></g><g fill="#8e59b7" fill-opacity="1"><g transform="translate(282.119905, 153.499662)"><g><path d="M 6.515625 0 C 5.253906 0 4.503906 -0.128906 4.265625 -0.390625 C 4.035156 -0.660156 3.875 -1.410156 3.78125 -2.640625 C 3.601562 -4.929688 3.46875 -7.632812 3.375 -10.75 C 3.28125 -13.863281 3.234375 -17.144531 3.234375 -20.59375 C 3.234375 -21.34375 3.222656 -22.234375 3.203125 -23.265625 C 3.191406 -24.296875 3.1875 -24.960938 3.1875 -25.265625 C 3.1875 -26.671875 3.289062 -27.5625 3.5 -27.9375 C 3.707031 -28.3125 4.207031 -28.5 5 -28.5 C 6.425781 -28.5 7.425781 -28.472656 8 -28.421875 C 8.570312 -28.378906 8.898438 -28.300781 8.984375 -28.1875 C 9.054688 -28.101562 9.164062 -27.757812 9.3125 -27.15625 C 9.457031 -26.550781 9.800781 -26.25 10.34375 -26.25 C 10.726562 -26.25 11.46875 -26.71875 12.5625 -27.65625 C 13.65625 -28.601562 14.753906 -29.078125 15.859375 -29.078125 C 17.003906 -29.078125 17.960938 -28.644531 18.734375 -27.78125 C 19.515625 -26.914062 19.90625 -25.847656 19.90625 -24.578125 C 19.90625 -23.410156 19.507812 -22.332031 18.71875 -21.34375 C 17.925781 -20.351562 17.226562 -19.859375 16.625 -19.859375 C 16.59375 -19.859375 16.226562 -20.351562 15.53125 -21.34375 C 14.832031 -22.34375 14.035156 -22.84375 13.140625 -22.84375 C 11.929688 -22.84375 10.984375 -22.125 10.296875 -20.6875 C 9.609375 -19.25 9.265625 -17.238281 9.265625 -14.65625 C 9.265625 -10.789062 9.695312 -6.785156 10.5625 -2.640625 C 10.75 -1.710938 10.84375 -1.144531 10.84375 -0.9375 C 10.84375 -0.550781 10.695312 -0.296875 10.40625 -0.171875 C 10.113281 -0.0546875 9.3125 0 8 0 Z M 6.515625 0 "/></g></g></g><g fill="#8e59b7" fill-opacity="1"><g transform="translate(304.560765, 153.499662)"><g><path d="M 21.046875 -28.5 C 21.847656 -28.5 22.375 -28.09375 22.625 -27.28125 C 22.882812 -26.46875 23.015625 -24.421875 23.015625 -21.140625 L 23.015625 -17.546875 C 23.015625 -13.515625 22.976562 -10.453125 22.90625 -8.359375 C 22.832031 -6.265625 22.71875 -4.507812 22.5625 -3.09375 L 22.53125 -2.96875 C 22.28125 -0.695312 20.898438 0.4375 18.390625 0.4375 C 17.492188 0.4375 16.8125 0.394531 16.34375 0.3125 C 15.875 0.226562 15.59375 0.109375 15.5 -0.046875 C 15.445312 -0.128906 15.394531 -0.257812 15.34375 -0.4375 C 15.207031 -0.894531 14.929688 -1.125 14.515625 -1.125 C 14.460938 -1.125 13.894531 -0.828125 12.8125 -0.234375 C 11.738281 0.347656 10.632812 0.640625 9.5 0.640625 C 7.113281 0.640625 5.414062 -0.46875 4.40625 -2.6875 C 3.394531 -4.914062 2.890625 -8.953125 2.890625 -14.796875 C 2.890625 -16.984375 2.945312 -19 3.0625 -20.84375 C 3.175781 -22.6875 3.328125 -24.132812 3.515625 -25.1875 C 3.546875 -25.351562 3.585938 -25.570312 3.640625 -25.84375 C 3.910156 -27.613281 4.476562 -28.5 5.34375 -28.5 L 10.015625 -28.5 C 10.410156 -28.5 10.660156 -28.453125 10.765625 -28.359375 C 10.878906 -28.265625 10.9375 -28.046875 10.9375 -27.703125 C 10.9375 -27.609375 10.859375 -27.257812 10.703125 -26.65625 C 9.429688 -21.707031 8.796875 -16.535156 8.796875 -11.140625 C 8.796875 -8.898438 9.066406 -7.289062 9.609375 -6.3125 C 10.148438 -5.34375 11.035156 -4.859375 12.265625 -4.859375 C 13.828125 -4.859375 15.007812 -5.648438 15.8125 -7.234375 C 16.625 -8.816406 17.03125 -11.144531 17.03125 -14.21875 C 17.03125 -18.738281 16.609375 -22.972656 15.765625 -26.921875 C 15.648438 -27.378906 15.59375 -27.640625 15.59375 -27.703125 C 15.59375 -28.003906 15.660156 -28.210938 15.796875 -28.328125 C 15.929688 -28.441406 16.222656 -28.5 16.671875 -28.5 Z M 21.046875 -28.5 "/></g></g></g><g fill="#8e59b7" fill-opacity="1"><g transform="translate(330.713754, 153.499662)"><g><path d="M 3.6875 -34.578125 C 3.6875 -35.421875 3.992188 -36.128906 4.609375 -36.703125 C 5.222656 -37.285156 5.992188 -37.578125 6.921875 -37.578125 C 7.890625 -37.578125 8.671875 -37.300781 9.265625 -36.75 C 9.859375 -36.195312 10.15625 -35.472656 10.15625 -34.578125 C 10.15625 -33.648438 9.867188 -32.921875 9.296875 -32.390625 C 8.722656 -31.859375 7.929688 -31.59375 6.921875 -31.59375 C 5.929688 -31.59375 5.144531 -31.863281 4.5625 -32.40625 C 3.976562 -32.945312 3.6875 -33.671875 3.6875 -34.578125 Z M 4.40625 0 C 3.738281 0 3.296875 -0.390625 3.078125 -1.171875 C 2.859375 -1.953125 2.75 -3.820312 2.75 -6.78125 L 2.75 -12.40625 C 2.75 -15.1875 2.796875 -17.8125 2.890625 -20.28125 C 2.992188 -22.757812 3.125 -24.875 3.28125 -26.625 C 3.300781 -26.695312 3.3125 -26.78125 3.3125 -26.875 C 3.382812 -27.875 4.359375 -28.382812 6.234375 -28.40625 L 6.921875 -28.40625 C 8.054688 -28.40625 8.742188 -28.347656 8.984375 -28.234375 C 9.234375 -28.117188 9.359375 -27.863281 9.359375 -27.46875 C 9.359375 -27.257812 9.320312 -26.765625 9.25 -25.984375 C 8.976562 -23.023438 8.84375 -20.25 8.84375 -17.65625 C 8.84375 -12.925781 9.253906 -8.003906 10.078125 -2.890625 C 10.253906 -1.796875 10.34375 -1.128906 10.34375 -0.890625 C 10.34375 -0.515625 10.1875 -0.269531 9.875 -0.15625 C 9.5625 -0.0507812 8.609375 0 7.015625 0 Z M 4.40625 0 "/></g></g></g><g fill="#8e59b7" fill-opacity="1"><g transform="translate(343.311256, 153.499662)"><g><path d="M 7.25 0.6875 C 6.425781 0.6875 5.726562 -0.609375 5.15625 -3.203125 C 4.59375 -5.796875 4.3125 -9.09375 4.3125 -13.09375 C 4.3125 -14.875 4.363281 -16.710938 4.46875 -18.609375 C 4.570312 -20.503906 4.625 -21.507812 4.625 -21.625 C 4.625 -22.40625 4.515625 -22.957031 4.296875 -23.28125 C 4.078125 -23.613281 3.722656 -23.78125 3.234375 -23.78125 C 3.046875 -23.78125 2.734375 -23.707031 2.296875 -23.5625 C 1.867188 -23.414062 1.539062 -23.34375 1.3125 -23.34375 C 1.15625 -23.34375 1.03125 -23.421875 0.9375 -23.578125 C 0.84375 -23.742188 0.796875 -23.976562 0.796875 -24.28125 C 0.796875 -24.445312 0.859375 -24.851562 0.984375 -25.5 C 1.109375 -26.144531 1.265625 -26.785156 1.453125 -27.421875 C 1.566406 -27.773438 1.703125 -28.019531 1.859375 -28.15625 C 2.023438 -28.289062 2.273438 -28.359375 2.609375 -28.359375 C 2.753906 -28.359375 2.914062 -28.347656 3.09375 -28.328125 C 3.269531 -28.316406 3.378906 -28.3125 3.421875 -28.3125 C 4.535156 -28.3125 5.234375 -29.109375 5.515625 -30.703125 C 5.609375 -31.296875 5.703125 -31.742188 5.796875 -32.046875 C 5.921875 -32.503906 6.660156 -33.015625 8.015625 -33.578125 C 9.378906 -34.148438 10.484375 -34.4375 11.328125 -34.4375 C 11.648438 -34.4375 11.863281 -34.390625 11.96875 -34.296875 C 12.070312 -34.210938 12.125 -34.0625 12.125 -33.84375 C 12.125 -33.488281 11.941406 -32.816406 11.578125 -31.828125 C 11.222656 -30.847656 11.046875 -30.082031 11.046875 -29.53125 C 11.046875 -29.113281 11.195312 -28.804688 11.5 -28.609375 C 11.8125 -28.410156 12.296875 -28.3125 12.953125 -28.3125 C 13.046875 -28.3125 13.1875 -28.316406 13.375 -28.328125 C 13.570312 -28.347656 13.703125 -28.359375 13.765625 -28.359375 C 14.296875 -28.359375 14.644531 -28.28125 14.8125 -28.125 C 14.976562 -27.976562 15.0625 -27.664062 15.0625 -27.1875 C 15.0625 -25.851562 14.96875 -24.90625 14.78125 -24.34375 C 14.601562 -23.78125 14.304688 -23.5 13.890625 -23.5 C 13.679688 -23.5 13.375 -23.566406 12.96875 -23.703125 C 12.570312 -23.847656 12.289062 -23.921875 12.125 -23.921875 C 11.332031 -23.921875 10.78125 -23.507812 10.46875 -22.6875 C 10.164062 -21.863281 10.015625 -20.25 10.015625 -17.84375 C 10.015625 -12.207031 10.914062 -7.53125 12.71875 -3.8125 C 12.9375 -3.332031 13.046875 -3.046875 13.046875 -2.953125 C 13.046875 -2.753906 12.953125 -2.535156 12.765625 -2.296875 C 12.585938 -2.054688 12.347656 -1.84375 12.046875 -1.65625 C 10.929688 -0.9375 9.941406 -0.367188 9.078125 0.046875 C 8.210938 0.472656 7.601562 0.6875 7.25 0.6875 Z M 7.25 0.6875 "/></g></g></g><g fill="#552c89" fill-opacity="1"><g transform="translate(204.345869, 251.913486)"><g><path d="M 39.078125 0 L 8.1875 0 C 7.082031 0 6.363281 -0.164062 6.03125 -0.5 C 5.707031 -0.84375 5.46875 -1.796875 5.3125 -3.359375 C 5.1875 -4.460938 5.066406 -7.035156 4.953125 -11.078125 C 4.847656 -15.128906 4.796875 -19.597656 4.796875 -24.484375 C 4.796875 -29.785156 5.050781 -34.96875 5.5625 -40.03125 C 6.082031 -45.101562 6.78125 -49.425781 7.65625 -53 C 8.207031 -55.382812 8.722656 -56.957031 9.203125 -57.71875 C 9.679688 -58.488281 10.296875 -58.875 11.046875 -58.875 L 39 -58.875 C 39.675781 -58.875 40.140625 -58.804688 40.390625 -58.671875 C 40.648438 -58.535156 40.78125 -58.316406 40.78125 -58.015625 C 40.78125 -57.910156 40.765625 -57.800781 40.734375 -57.6875 C 40.710938 -57.570312 40.675781 -57.476562 40.625 -57.40625 L 36.46875 -48.359375 C 36.25 -47.929688 36.050781 -47.628906 35.875 -47.453125 C 35.695312 -47.273438 35.507812 -47.1875 35.3125 -47.1875 C 35.175781 -47.207031 34.832031 -47.382812 34.28125 -47.71875 C 31.0625 -49.570312 28.007812 -50.5 25.125 -50.5 C 21.925781 -50.5 19.421875 -49.59375 17.609375 -47.78125 C 15.804688 -45.976562 14.90625 -43.46875 14.90625 -40.25 C 14.90625 -39.144531 15.117188 -38.25 15.546875 -37.5625 C 15.972656 -36.882812 16.535156 -36.546875 17.234375 -36.546875 C 17.992188 -36.546875 19.726562 -37.109375 22.4375 -38.234375 C 25.15625 -39.367188 27.484375 -39.9375 29.421875 -39.9375 C 31.410156 -39.9375 32.679688 -39.84375 33.234375 -39.65625 C 33.785156 -39.46875 34.0625 -39.125 34.0625 -38.625 C 34.0625 -38.519531 34.050781 -38.429688 34.03125 -38.359375 C 34.019531 -38.285156 33.976562 -38.148438 33.90625 -37.953125 L 30.59375 -28.75 C 30.539062 -28.613281 30.460938 -28.421875 30.359375 -28.171875 C 30.160156 -27.671875 29.945312 -27.421875 29.71875 -27.421875 C 29.644531 -27.421875 28.925781 -27.628906 27.5625 -28.046875 C 26.207031 -28.460938 24.925781 -28.671875 23.71875 -28.671875 C 21.132812 -28.671875 19.019531 -27.789062 17.375 -26.03125 C 15.726562 -24.269531 14.90625 -22.003906 14.90625 -19.234375 C 14.90625 -16.046875 15.71875 -13.5625 17.34375 -11.78125 C 18.976562 -10.007812 21.28125 -9.125 24.25 -9.125 C 26.6875 -9.125 29.234375 -9.921875 31.890625 -11.515625 C 34.546875 -13.117188 35.882812 -13.921875 35.90625 -13.921875 C 36.132812 -13.921875 36.347656 -13.828125 36.546875 -13.640625 C 36.753906 -13.453125 36.929688 -13.179688 37.078125 -12.828125 L 41.875 -2.453125 C 41.945312 -2.273438 42 -2.109375 42.03125 -1.953125 C 42.070312 -1.804688 42.09375 -1.671875 42.09375 -1.546875 C 42.09375 -1.015625 41.851562 -0.625 41.375 -0.375 C 40.894531 -0.125 40.128906 0 39.078125 0 Z M 39.078125 0 "/></g></g></g><g fill="#552c89" fill-opacity="1"><g transform="translate(248.211125, 251.913486)"><g><path d="M 23.953125 -19.09375 C 23.953125 -19.988281 23.707031 -20.675781 23.21875 -21.15625 C 22.726562 -21.632812 21.992188 -21.875 21.015625 -21.875 C 18.847656 -21.875 16.898438 -21.109375 15.171875 -19.578125 C 13.453125 -18.046875 12.59375 -16.1875 12.59375 -14 C 12.59375 -12.1875 13.242188 -10.6875 14.546875 -9.5 C 15.859375 -8.320312 17.546875 -7.734375 19.609375 -7.734375 C 21.171875 -7.734375 22.285156 -7.941406 22.953125 -8.359375 C 23.617188 -8.773438 23.953125 -9.457031 23.953125 -10.40625 Z M 17.390625 1.015625 C 12.660156 1.015625 9.019531 -0.132812 6.46875 -2.4375 C 3.914062 -4.738281 2.640625 -8.023438 2.640625 -12.296875 C 2.640625 -15.410156 3.535156 -18.210938 5.328125 -20.703125 C 7.128906 -23.191406 9.726562 -25.226562 13.125 -26.8125 C 14.90625 -27.644531 17.109375 -28.351562 19.734375 -28.9375 C 22.191406 -29.507812 23.421875 -30.398438 23.421875 -31.609375 C 23.421875 -33.210938 22.734375 -34.625 21.359375 -35.84375 C 19.992188 -37.070312 18.332031 -37.6875 16.375 -37.6875 C 15.007812 -37.6875 13.78125 -37.398438 12.6875 -36.828125 C 11.59375 -36.265625 10.734375 -35.441406 10.109375 -34.359375 C 9.804688 -33.859375 9.570312 -33.222656 9.40625 -32.453125 C 9.25 -31.691406 8.941406 -31.296875 8.484375 -31.265625 C 7.203125 -31.265625 6.070312 -31.832031 5.09375 -32.96875 C 4.113281 -34.101562 3.625 -35.5 3.625 -37.15625 C 3.625 -39.769531 4.78125 -41.878906 7.09375 -43.484375 C 9.40625 -45.097656 12.472656 -45.90625 16.296875 -45.90625 C 18.253906 -45.90625 20.125 -45.648438 21.90625 -45.140625 C 23.695312 -44.640625 25.332031 -43.914062 26.8125 -42.96875 C 29.257812 -41.332031 30.988281 -39.3125 32 -36.90625 C 33.019531 -34.507812 33.53125 -30.882812 33.53125 -26.03125 C 33.53125 -16.875 33.859375 -9.140625 34.515625 -2.828125 C 34.585938 -2.296875 34.625 -1.992188 34.625 -1.921875 C 34.625 -0.890625 34.40625 -0.203125 33.96875 0.140625 C 33.53125 0.492188 32.628906 0.671875 31.265625 0.671875 C 30.867188 0.671875 30.09375 0.632812 28.9375 0.5625 C 27.78125 0.488281 26.835938 0.453125 26.109375 0.453125 C 24.972656 0.453125 23.441406 0.546875 21.515625 0.734375 C 19.597656 0.921875 18.222656 1.015625 17.390625 1.015625 Z M 17.390625 1.015625 "/></g></g></g><g fill="#552c89" fill-opacity="1"><g transform="translate(286.456492, 251.913486)"><g><path d="M 4.71875 -19.09375 C 4.789062 -19.09375 5.019531 -18.5625 5.40625 -17.5 C 5.800781 -16.445312 6.285156 -15.453125 6.859375 -14.515625 C 7.972656 -12.835938 9.363281 -11.503906 11.03125 -10.515625 C 12.707031 -9.535156 14.4375 -9.046875 16.21875 -9.046875 C 18.175781 -9.046875 19.734375 -9.492188 20.890625 -10.390625 C 22.046875 -11.285156 22.625 -12.488281 22.625 -14 C 22.625 -15.675781 20.691406 -17.421875 16.828125 -19.234375 C 16.398438 -19.429688 16.070312 -19.582031 15.84375 -19.6875 C 10.789062 -22.101562 7.488281 -24.257812 5.9375 -26.15625 C 4.394531 -28.050781 3.625 -30.457031 3.625 -33.375 C 3.625 -37.25 4.941406 -40.304688 7.578125 -42.546875 C 10.222656 -44.785156 13.84375 -45.90625 18.4375 -45.90625 C 21.707031 -45.90625 24.648438 -45.1875 27.265625 -43.75 C 29.878906 -42.320312 31.1875 -40.90625 31.1875 -39.5 C 31.1875 -38.414062 30.515625 -36.953125 29.171875 -35.109375 C 27.828125 -33.273438 26.726562 -32.359375 25.875 -32.359375 C 25.625 -32.359375 24.675781 -33.3125 23.03125 -35.21875 C 21.382812 -37.132812 19.476562 -38.09375 17.3125 -38.09375 C 15.957031 -38.09375 14.832031 -37.703125 13.9375 -36.921875 C 13.039062 -36.148438 12.59375 -35.222656 12.59375 -34.140625 C 12.59375 -32.078125 14.734375 -30.140625 19.015625 -28.328125 C 20.191406 -27.828125 21.117188 -27.425781 21.796875 -27.125 C 25.773438 -25.28125 28.648438 -23.234375 30.421875 -20.984375 C 32.191406 -18.734375 33.078125 -16.015625 33.078125 -12.828125 C 33.078125 -8.578125 31.570312 -5.207031 28.5625 -2.71875 C 25.5625 -0.226562 21.5 1.015625 16.375 1.015625 C 12.070312 1.015625 8.632812 -0.140625 6.0625 -2.453125 C 3.5 -4.765625 2.21875 -7.859375 2.21875 -11.734375 C 2.21875 -13.566406 2.523438 -15.25 3.140625 -16.78125 C 3.765625 -18.320312 4.289062 -19.09375 4.71875 -19.09375 Z M 4.71875 -19.09375 "/></g></g></g><g fill="#552c89" fill-opacity="1"><g transform="translate(321.759908, 251.913486)"><g><path d="M 23.5 -29.421875 C 24.507812 -29.773438 25.257812 -30.265625 25.75 -30.890625 C 26.238281 -31.515625 26.484375 -32.296875 26.484375 -33.234375 C 26.484375 -34.566406 25.945312 -35.648438 24.875 -36.484375 C 23.800781 -37.328125 22.410156 -37.75 20.703125 -37.75 C 18.296875 -37.75 16.210938 -36.738281 14.453125 -34.71875 C 12.691406 -32.695312 11.8125 -30.414062 11.8125 -27.875 C 11.8125 -27.375 11.9375 -26.953125 12.1875 -26.609375 C 12.4375 -26.273438 12.722656 -26.109375 13.046875 -26.109375 C 13.273438 -26.109375 13.5 -26.128906 13.71875 -26.171875 C 13.945312 -26.222656 14.226562 -26.3125 14.5625 -26.4375 Z M 2.640625 -21.6875 C 2.640625 -29.101562 4.316406 -34.992188 7.671875 -39.359375 C 11.035156 -43.722656 15.554688 -45.90625 21.234375 -45.90625 C 25.335938 -45.90625 28.679688 -44.796875 31.265625 -42.578125 C 33.859375 -40.367188 35.15625 -37.53125 35.15625 -34.0625 C 35.15625 -31.195312 34.367188 -28.78125 32.796875 -26.8125 C 31.222656 -24.851562 28.710938 -23.179688 25.265625 -21.796875 C 24.210938 -21.367188 22.742188 -20.832031 20.859375 -20.1875 C 15.859375 -18.425781 13.359375 -16.515625 13.359375 -14.453125 C 13.359375 -12.960938 14.160156 -11.726562 15.765625 -10.75 C 17.378906 -9.769531 19.441406 -9.28125 21.953125 -9.28125 C 23.609375 -9.28125 25.160156 -9.519531 26.609375 -10 C 28.054688 -10.476562 29.304688 -11.15625 30.359375 -12.03125 C 32.171875 -13.59375 33.34375 -15.351562 33.875 -17.3125 C 33.96875 -17.664062 34.054688 -17.84375 34.140625 -17.84375 C 34.660156 -17.84375 35.0625 -17.40625 35.34375 -16.53125 C 35.625 -15.664062 35.765625 -14.429688 35.765625 -12.828125 C 35.765625 -8.671875 34.347656 -5.320312 31.515625 -2.78125 C 28.679688 -0.25 24.925781 1.015625 20.25 1.015625 C 14.71875 1.015625 10.398438 -0.988281 7.296875 -5 C 4.191406 -9.007812 2.640625 -14.570312 2.640625 -21.6875 Z M 2.640625 -21.6875 "/></g></g></g></svg>